M48
METRIC,LZ,000.000
;FILE_FORMAT=3:3
;TYPE=PLATED
;Layer: PTH_Through
;EasyEDA v6.5.23, 2023-04-28 09:12:44
;028e3914a6f949ed9ca799ef75e4ed4f,10
;Gerber Generator version 0.2
;Holesize 1 = 0.800 mm
T01C0.800
;Holesize 2 = 0.889 mm
T02C0.889
;Holesize 3 = 0.915 mm
T03C0.915
;Holesize 4 = 1.000 mm
T04C1.000
;Holesize 5 = 1.016 mm
T05C1.016
;Holesize 6 = 1.199 mm
T06C1.199
%
G05
G90
T01
X062611Y069977
X052451Y069977
X036195Y075565
X036195Y065405
X024003Y075438
X024003Y065278
X017145Y075438
X017145Y065278
T02
X017145Y079629
T03
X026416Y079629
X023876Y079629
X036195Y079629
X033655Y079629
T04
X062484Y077343
X062484Y074803
T05
X051674Y057404
X049134Y057404
X046594Y057404
X044054Y057404
X041514Y057404
X038974Y057404
X036434Y057404
X033894Y057404
X031354Y057404
X028814Y057404
X026274Y057404
X023734Y057404
X016114Y057404
X013574Y057404
X011034Y057404
X011034Y042164
X013604Y042164
X016144Y042164
X018684Y042164
X021224Y042164
X023764Y042164
X026304Y042164
X028844Y042164
X031384Y042164
X021194Y057404
X018654Y057404
X033924Y042164
X036464Y042164
X039004Y042164
X041544Y042164
X044084Y042164
X046624Y042164
X049164Y042164
X051704Y042164
T06
X054902Y075692
X051397Y075692
X047892Y075692
X044412Y075692
M30
