G04 Layer: BottomLayer*
G04 EasyEDA v6.5.23, 2023-05-08 10:40:45*
G04 028e3914a6f949ed9ca799ef75e4ed4f,10*
G04 Gerber Generator version 0.2*
G04 Scale: 100 percent, Rotated: No, Reflected: No *
G04 Dimensions in millimeters *
G04 leading zeros omitted , absolute positions ,4 integer and 5 decimal *
%FSLAX45Y45*%
%MOMM*%

%ADD10C,0.2540*%
%ADD11R,1.5748X1.5748*%
%ADD12C,1.4986*%
%ADD13R,1.4986X1.4986*%
%ADD14R,2.0320X2.0320*%
%ADD15C,2.0320*%
%ADD16C,2.0000*%
%ADD17R,1.8796X1.8796*%
%ADD18C,1.8796*%
%ADD19R,2.3000X1.6500*%
%ADD20O,2.2999954X1.6500094*%
%ADD21O,0.0181X1.6500094*%

%LPD*%
G36*
X759460Y3251200D02*
G01*
X755548Y3251962D01*
X752297Y3254197D01*
X750062Y3257448D01*
X749300Y3261360D01*
X749300Y8435340D01*
X750062Y8439251D01*
X752297Y8442502D01*
X755548Y8444738D01*
X759460Y8445500D01*
X7800340Y8445500D01*
X7804251Y8444738D01*
X7807502Y8442502D01*
X7809738Y8439251D01*
X7810500Y8435340D01*
X7810500Y3268116D01*
X7809738Y3264204D01*
X7807502Y3260902D01*
X7800797Y3254197D01*
X7797495Y3251962D01*
X7793583Y3251200D01*
G37*

%LPC*%
G36*
X7531100Y3306622D02*
G01*
X7551775Y3307537D01*
X7572248Y3310432D01*
X7592415Y3315157D01*
X7612024Y3321710D01*
X7630922Y3330092D01*
X7649006Y3340150D01*
X7666075Y3351834D01*
X7682026Y3365042D01*
X7696657Y3379673D01*
X7709865Y3395624D01*
X7721549Y3412693D01*
X7731607Y3430778D01*
X7739989Y3449675D01*
X7746542Y3469284D01*
X7751267Y3489451D01*
X7754162Y3509924D01*
X7755077Y3530600D01*
X7754162Y3551275D01*
X7751267Y3571748D01*
X7746542Y3591915D01*
X7739989Y3611524D01*
X7731607Y3630422D01*
X7721549Y3648506D01*
X7709865Y3665575D01*
X7696657Y3681526D01*
X7682026Y3696157D01*
X7666075Y3709365D01*
X7649006Y3721049D01*
X7630922Y3731107D01*
X7612024Y3739489D01*
X7592415Y3746042D01*
X7572248Y3750767D01*
X7551775Y3753662D01*
X7531100Y3754577D01*
X7510424Y3753662D01*
X7489952Y3750767D01*
X7469784Y3746042D01*
X7450175Y3739489D01*
X7431278Y3731107D01*
X7413193Y3721049D01*
X7396124Y3709365D01*
X7380173Y3696157D01*
X7365542Y3681526D01*
X7352334Y3665575D01*
X7340650Y3648506D01*
X7330592Y3630422D01*
X7322210Y3611524D01*
X7315657Y3591915D01*
X7310932Y3571748D01*
X7308037Y3551275D01*
X7307122Y3530600D01*
X7308037Y3509924D01*
X7310932Y3489451D01*
X7315657Y3469284D01*
X7322210Y3449675D01*
X7330592Y3430778D01*
X7340650Y3412693D01*
X7352334Y3395624D01*
X7365542Y3379673D01*
X7380173Y3365042D01*
X7396124Y3351834D01*
X7413193Y3340150D01*
X7431278Y3330092D01*
X7450175Y3321710D01*
X7469784Y3315157D01*
X7489952Y3310432D01*
X7510424Y3307537D01*
G37*
G36*
X1028700Y3306622D02*
G01*
X1049375Y3307537D01*
X1069848Y3310432D01*
X1090015Y3315157D01*
X1109624Y3321710D01*
X1128522Y3330092D01*
X1146606Y3340150D01*
X1163675Y3351834D01*
X1179626Y3365042D01*
X1194257Y3379673D01*
X1207465Y3395624D01*
X1219149Y3412693D01*
X1229207Y3430778D01*
X1237589Y3449675D01*
X1244142Y3469284D01*
X1248867Y3489451D01*
X1251762Y3509924D01*
X1252677Y3530600D01*
X1251762Y3551275D01*
X1248867Y3571748D01*
X1244142Y3591915D01*
X1237589Y3611524D01*
X1229207Y3630422D01*
X1219149Y3648506D01*
X1207465Y3665575D01*
X1194257Y3681526D01*
X1179626Y3696157D01*
X1163675Y3709365D01*
X1146606Y3721049D01*
X1128522Y3731107D01*
X1109624Y3739489D01*
X1090015Y3746042D01*
X1069848Y3750767D01*
X1049375Y3753662D01*
X1028700Y3754577D01*
X1008024Y3753662D01*
X987552Y3750767D01*
X967384Y3746042D01*
X947775Y3739489D01*
X928878Y3731107D01*
X910793Y3721049D01*
X893724Y3709365D01*
X877773Y3696157D01*
X863142Y3681526D01*
X849934Y3665575D01*
X838250Y3648506D01*
X828192Y3630422D01*
X819810Y3611524D01*
X813257Y3591915D01*
X808532Y3571748D01*
X805637Y3551275D01*
X804722Y3530600D01*
X805637Y3509924D01*
X808532Y3489451D01*
X813257Y3469284D01*
X819810Y3449675D01*
X828192Y3430778D01*
X838250Y3412693D01*
X849934Y3395624D01*
X863142Y3379673D01*
X877773Y3365042D01*
X893724Y3351834D01*
X910793Y3340150D01*
X928878Y3330092D01*
X947775Y3321710D01*
X967384Y3315157D01*
X987552Y3310432D01*
X1008024Y3307537D01*
G37*
G36*
X1103426Y4096512D02*
G01*
X1118158Y4097426D01*
X1132687Y4100169D01*
X1146708Y4104640D01*
X1160119Y4110786D01*
X1172667Y4118559D01*
X1184198Y4127804D01*
X1194460Y4138422D01*
X1203350Y4150207D01*
X1210716Y4162958D01*
X1216456Y4176572D01*
X1220520Y4190746D01*
X1221790Y4198823D01*
X1223264Y4202734D01*
X1226159Y4205732D01*
X1230020Y4207256D01*
X1234186Y4207154D01*
X1237996Y4205376D01*
X1240688Y4202176D01*
X1241958Y4198010D01*
X1245108Y4183583D01*
X1250035Y4169664D01*
X1256588Y4156456D01*
X1264716Y4144162D01*
X1274368Y4132935D01*
X1285240Y4123029D01*
X1297279Y4114495D01*
X1310284Y4107484D01*
X1324051Y4102150D01*
X1338376Y4098594D01*
X1353007Y4096765D01*
X1367790Y4096765D01*
X1382420Y4098594D01*
X1396746Y4102150D01*
X1410512Y4107484D01*
X1423517Y4114495D01*
X1435557Y4123029D01*
X1446479Y4132935D01*
X1456080Y4144162D01*
X1464208Y4156456D01*
X1470761Y4169664D01*
X1475689Y4183583D01*
X1477467Y4191711D01*
X1479042Y4195318D01*
X1481836Y4198061D01*
X1485442Y4199534D01*
X1489354Y4199534D01*
X1492961Y4198061D01*
X1495755Y4195318D01*
X1497330Y4191711D01*
X1499108Y4183583D01*
X1504035Y4169664D01*
X1510588Y4156456D01*
X1518716Y4144162D01*
X1528368Y4132935D01*
X1539240Y4123029D01*
X1551279Y4114495D01*
X1564284Y4107484D01*
X1578051Y4102150D01*
X1592376Y4098594D01*
X1607007Y4096765D01*
X1621790Y4096765D01*
X1636420Y4098594D01*
X1650746Y4102150D01*
X1664512Y4107484D01*
X1677517Y4114495D01*
X1689557Y4123029D01*
X1700479Y4132935D01*
X1710080Y4144162D01*
X1718208Y4156456D01*
X1724761Y4169664D01*
X1729689Y4183583D01*
X1731467Y4191711D01*
X1733042Y4195318D01*
X1735836Y4198061D01*
X1739442Y4199534D01*
X1743354Y4199534D01*
X1746961Y4198061D01*
X1749755Y4195318D01*
X1751330Y4191711D01*
X1753107Y4183583D01*
X1758035Y4169664D01*
X1764588Y4156456D01*
X1772716Y4144162D01*
X1782368Y4132935D01*
X1793239Y4123029D01*
X1805279Y4114495D01*
X1818284Y4107484D01*
X1832051Y4102150D01*
X1846376Y4098594D01*
X1861007Y4096765D01*
X1875789Y4096765D01*
X1890420Y4098594D01*
X1904746Y4102150D01*
X1918512Y4107484D01*
X1931517Y4114495D01*
X1943557Y4123029D01*
X1954479Y4132935D01*
X1964080Y4144162D01*
X1972208Y4156456D01*
X1978761Y4169664D01*
X1983689Y4183583D01*
X1985467Y4191711D01*
X1987042Y4195318D01*
X1989836Y4198061D01*
X1993442Y4199534D01*
X1997354Y4199534D01*
X2000961Y4198061D01*
X2003755Y4195318D01*
X2005330Y4191711D01*
X2007107Y4183583D01*
X2012035Y4169664D01*
X2018588Y4156456D01*
X2026716Y4144162D01*
X2036368Y4132935D01*
X2047239Y4123029D01*
X2059279Y4114495D01*
X2072284Y4107484D01*
X2086051Y4102150D01*
X2100376Y4098594D01*
X2115007Y4096765D01*
X2129790Y4096765D01*
X2144420Y4098594D01*
X2158746Y4102150D01*
X2172512Y4107484D01*
X2185517Y4114495D01*
X2197557Y4123029D01*
X2208479Y4132935D01*
X2218080Y4144162D01*
X2226208Y4156456D01*
X2232761Y4169664D01*
X2237689Y4183583D01*
X2239467Y4191711D01*
X2241042Y4195318D01*
X2243836Y4198061D01*
X2247442Y4199534D01*
X2251354Y4199534D01*
X2254961Y4198061D01*
X2257755Y4195318D01*
X2259330Y4191711D01*
X2261108Y4183583D01*
X2266035Y4169664D01*
X2272588Y4156456D01*
X2280716Y4144162D01*
X2290368Y4132935D01*
X2301240Y4123029D01*
X2313279Y4114495D01*
X2326284Y4107484D01*
X2340051Y4102150D01*
X2354376Y4098594D01*
X2369007Y4096765D01*
X2383790Y4096765D01*
X2398420Y4098594D01*
X2412746Y4102150D01*
X2426512Y4107484D01*
X2439517Y4114495D01*
X2451557Y4123029D01*
X2462479Y4132935D01*
X2472080Y4144162D01*
X2480208Y4156456D01*
X2486761Y4169664D01*
X2491689Y4183583D01*
X2493467Y4191711D01*
X2495042Y4195318D01*
X2497836Y4198061D01*
X2501442Y4199534D01*
X2505354Y4199534D01*
X2508961Y4198061D01*
X2511755Y4195318D01*
X2513330Y4191711D01*
X2515108Y4183583D01*
X2520035Y4169664D01*
X2526588Y4156456D01*
X2534716Y4144162D01*
X2544368Y4132935D01*
X2555240Y4123029D01*
X2567279Y4114495D01*
X2580284Y4107484D01*
X2594051Y4102150D01*
X2608376Y4098594D01*
X2623007Y4096765D01*
X2637790Y4096765D01*
X2652420Y4098594D01*
X2666746Y4102150D01*
X2680512Y4107484D01*
X2693517Y4114495D01*
X2705557Y4123029D01*
X2716479Y4132935D01*
X2726080Y4144162D01*
X2734208Y4156456D01*
X2740761Y4169664D01*
X2745689Y4183583D01*
X2747467Y4191711D01*
X2749042Y4195318D01*
X2751836Y4198061D01*
X2755442Y4199534D01*
X2759354Y4199534D01*
X2762961Y4198061D01*
X2765755Y4195318D01*
X2767330Y4191711D01*
X2769108Y4183583D01*
X2774035Y4169664D01*
X2780588Y4156456D01*
X2788716Y4144162D01*
X2798368Y4132935D01*
X2809240Y4123029D01*
X2821279Y4114495D01*
X2834284Y4107484D01*
X2848051Y4102150D01*
X2862376Y4098594D01*
X2877007Y4096765D01*
X2891790Y4096765D01*
X2906420Y4098594D01*
X2920746Y4102150D01*
X2934512Y4107484D01*
X2947517Y4114495D01*
X2959557Y4123029D01*
X2970479Y4132935D01*
X2980080Y4144162D01*
X2988208Y4156456D01*
X2994761Y4169664D01*
X2999689Y4183583D01*
X3001467Y4191660D01*
X3003042Y4195267D01*
X3005836Y4198010D01*
X3009442Y4199483D01*
X3013354Y4199483D01*
X3016961Y4198010D01*
X3019755Y4195267D01*
X3021330Y4191660D01*
X3023057Y4183583D01*
X3027984Y4169664D01*
X3034588Y4156456D01*
X3042716Y4144162D01*
X3052318Y4132935D01*
X3063240Y4123029D01*
X3075279Y4114495D01*
X3088284Y4107484D01*
X3102051Y4102150D01*
X3116326Y4098594D01*
X3131007Y4096765D01*
X3145739Y4096765D01*
X3160420Y4098594D01*
X3174695Y4102150D01*
X3188462Y4107484D01*
X3201466Y4114495D01*
X3213506Y4123029D01*
X3224428Y4132935D01*
X3234029Y4144162D01*
X3242157Y4156456D01*
X3248761Y4169664D01*
X3253689Y4183583D01*
X3255467Y4191711D01*
X3256991Y4195318D01*
X3259785Y4198061D01*
X3263442Y4199534D01*
X3267303Y4199534D01*
X3270961Y4198061D01*
X3273755Y4195318D01*
X3275279Y4191711D01*
X3277057Y4183583D01*
X3281984Y4169664D01*
X3288588Y4156456D01*
X3296716Y4144162D01*
X3306318Y4132935D01*
X3317240Y4123029D01*
X3329279Y4114495D01*
X3342284Y4107484D01*
X3356051Y4102150D01*
X3370326Y4098594D01*
X3385007Y4096765D01*
X3399739Y4096765D01*
X3414420Y4098594D01*
X3428695Y4102150D01*
X3442462Y4107484D01*
X3455466Y4114495D01*
X3467506Y4123029D01*
X3478428Y4132935D01*
X3488029Y4144162D01*
X3496157Y4156456D01*
X3502761Y4169664D01*
X3507689Y4183583D01*
X3509467Y4191711D01*
X3510991Y4195318D01*
X3513785Y4198061D01*
X3517442Y4199534D01*
X3521303Y4199534D01*
X3524961Y4198061D01*
X3527755Y4195318D01*
X3529279Y4191711D01*
X3531057Y4183583D01*
X3535984Y4169664D01*
X3542588Y4156456D01*
X3550716Y4144162D01*
X3560318Y4132935D01*
X3571240Y4123029D01*
X3583279Y4114495D01*
X3596284Y4107484D01*
X3610051Y4102150D01*
X3624326Y4098594D01*
X3639007Y4096765D01*
X3653739Y4096765D01*
X3668420Y4098594D01*
X3682695Y4102150D01*
X3696462Y4107484D01*
X3709466Y4114495D01*
X3721506Y4123029D01*
X3732428Y4132935D01*
X3742029Y4144162D01*
X3750157Y4156456D01*
X3756761Y4169664D01*
X3761689Y4183583D01*
X3763467Y4191711D01*
X3764991Y4195318D01*
X3767785Y4198061D01*
X3771442Y4199534D01*
X3775303Y4199534D01*
X3778961Y4198061D01*
X3781755Y4195318D01*
X3783279Y4191711D01*
X3785057Y4183583D01*
X3789984Y4169664D01*
X3796588Y4156456D01*
X3804716Y4144162D01*
X3814318Y4132935D01*
X3825240Y4123029D01*
X3837279Y4114495D01*
X3850284Y4107484D01*
X3864051Y4102150D01*
X3878326Y4098594D01*
X3893007Y4096765D01*
X3907739Y4096765D01*
X3922420Y4098594D01*
X3936695Y4102150D01*
X3950462Y4107484D01*
X3963466Y4114495D01*
X3975506Y4123029D01*
X3986428Y4132935D01*
X3996029Y4144162D01*
X4004157Y4156456D01*
X4010761Y4169664D01*
X4015689Y4183583D01*
X4017467Y4191711D01*
X4018991Y4195318D01*
X4021785Y4198061D01*
X4025442Y4199534D01*
X4029303Y4199534D01*
X4032961Y4198061D01*
X4035755Y4195318D01*
X4037279Y4191711D01*
X4039057Y4183583D01*
X4043984Y4169664D01*
X4050588Y4156456D01*
X4058716Y4144162D01*
X4068318Y4132935D01*
X4079240Y4123029D01*
X4091279Y4114495D01*
X4104284Y4107484D01*
X4118051Y4102150D01*
X4132326Y4098594D01*
X4147007Y4096765D01*
X4161739Y4096765D01*
X4176420Y4098594D01*
X4190695Y4102150D01*
X4204462Y4107484D01*
X4217466Y4114495D01*
X4229506Y4123029D01*
X4240428Y4132935D01*
X4250029Y4144162D01*
X4258157Y4156456D01*
X4264761Y4169664D01*
X4269689Y4183583D01*
X4272838Y4198010D01*
X4274159Y4212691D01*
X4273753Y4227474D01*
X4271416Y4242155D01*
X4267403Y4256227D01*
X4261662Y4269841D01*
X4254296Y4282592D01*
X4245406Y4294378D01*
X4235145Y4304995D01*
X4223613Y4314240D01*
X4211066Y4322013D01*
X4197654Y4328160D01*
X4183634Y4332630D01*
X4169105Y4335373D01*
X4154373Y4336288D01*
X4139641Y4335373D01*
X4125112Y4332630D01*
X4111091Y4328160D01*
X4097680Y4322013D01*
X4085132Y4314240D01*
X4073601Y4304995D01*
X4063339Y4294378D01*
X4054449Y4282592D01*
X4047083Y4269841D01*
X4041343Y4256227D01*
X4037126Y4241596D01*
X4035094Y4237736D01*
X4031640Y4235145D01*
X4027373Y4234180D01*
X4023106Y4235145D01*
X4019651Y4237736D01*
X4017619Y4241596D01*
X4013403Y4256227D01*
X4007662Y4269841D01*
X4000296Y4282592D01*
X3991406Y4294378D01*
X3981145Y4304995D01*
X3969613Y4314240D01*
X3957065Y4322013D01*
X3943654Y4328160D01*
X3929634Y4332630D01*
X3915105Y4335373D01*
X3900373Y4336288D01*
X3885641Y4335373D01*
X3871112Y4332630D01*
X3857091Y4328160D01*
X3843680Y4322013D01*
X3831132Y4314240D01*
X3819601Y4304995D01*
X3809339Y4294378D01*
X3800449Y4282592D01*
X3793083Y4269841D01*
X3787343Y4256227D01*
X3783126Y4241596D01*
X3781094Y4237736D01*
X3777640Y4235145D01*
X3773373Y4234180D01*
X3769106Y4235145D01*
X3765651Y4237736D01*
X3763619Y4241596D01*
X3759403Y4256227D01*
X3753662Y4269841D01*
X3746296Y4282592D01*
X3737406Y4294378D01*
X3727145Y4304995D01*
X3715613Y4314240D01*
X3703065Y4322013D01*
X3689654Y4328160D01*
X3675634Y4332630D01*
X3661105Y4335373D01*
X3646373Y4336288D01*
X3631641Y4335373D01*
X3617112Y4332630D01*
X3603091Y4328160D01*
X3589680Y4322013D01*
X3577132Y4314240D01*
X3565601Y4304995D01*
X3555339Y4294378D01*
X3546449Y4282592D01*
X3539083Y4269841D01*
X3533343Y4256227D01*
X3529126Y4241596D01*
X3527094Y4237736D01*
X3523640Y4235145D01*
X3519373Y4234180D01*
X3515106Y4235145D01*
X3511651Y4237736D01*
X3509619Y4241596D01*
X3505403Y4256227D01*
X3499662Y4269841D01*
X3492296Y4282592D01*
X3483406Y4294378D01*
X3473145Y4304995D01*
X3461613Y4314240D01*
X3449065Y4322013D01*
X3435654Y4328160D01*
X3421634Y4332630D01*
X3407105Y4335373D01*
X3392373Y4336288D01*
X3377641Y4335373D01*
X3363112Y4332630D01*
X3349091Y4328160D01*
X3335680Y4322013D01*
X3323132Y4314240D01*
X3311601Y4304995D01*
X3301339Y4294378D01*
X3292449Y4282592D01*
X3285083Y4269841D01*
X3279343Y4256227D01*
X3275126Y4241596D01*
X3273094Y4237736D01*
X3269640Y4235145D01*
X3265373Y4234180D01*
X3261106Y4235145D01*
X3257651Y4237736D01*
X3255619Y4241596D01*
X3251403Y4256227D01*
X3245662Y4269841D01*
X3238296Y4282592D01*
X3229406Y4294378D01*
X3219145Y4304995D01*
X3207613Y4314240D01*
X3195066Y4322013D01*
X3181654Y4328160D01*
X3167634Y4332630D01*
X3153105Y4335373D01*
X3138373Y4336288D01*
X3123641Y4335373D01*
X3109112Y4332630D01*
X3095091Y4328160D01*
X3081680Y4322013D01*
X3069132Y4314240D01*
X3057601Y4304995D01*
X3047339Y4294378D01*
X3038449Y4282592D01*
X3031083Y4269841D01*
X3025343Y4256227D01*
X3021177Y4241596D01*
X3019094Y4237786D01*
X3015640Y4235145D01*
X3011373Y4234230D01*
X3007156Y4235145D01*
X3003651Y4237786D01*
X3001619Y4241596D01*
X2997454Y4256227D01*
X2991713Y4269841D01*
X2984296Y4282592D01*
X2975406Y4294378D01*
X2965145Y4304995D01*
X2953664Y4314240D01*
X2941116Y4322013D01*
X2927705Y4328160D01*
X2913634Y4332630D01*
X2899105Y4335373D01*
X2884424Y4336288D01*
X2869692Y4335373D01*
X2855163Y4332630D01*
X2841091Y4328160D01*
X2827680Y4322013D01*
X2815132Y4314240D01*
X2803652Y4304995D01*
X2793390Y4294378D01*
X2784500Y4282592D01*
X2777083Y4269841D01*
X2771343Y4256227D01*
X2767177Y4241596D01*
X2765094Y4237736D01*
X2761640Y4235145D01*
X2757424Y4234180D01*
X2753156Y4235145D01*
X2749702Y4237736D01*
X2747619Y4241596D01*
X2743454Y4256227D01*
X2737713Y4269841D01*
X2730296Y4282592D01*
X2721406Y4294378D01*
X2711145Y4304995D01*
X2699664Y4314240D01*
X2687116Y4322013D01*
X2673705Y4328160D01*
X2659634Y4332630D01*
X2645105Y4335373D01*
X2630424Y4336288D01*
X2615692Y4335373D01*
X2601163Y4332630D01*
X2587091Y4328160D01*
X2573680Y4322013D01*
X2561132Y4314240D01*
X2549652Y4304995D01*
X2539390Y4294378D01*
X2530500Y4282592D01*
X2523083Y4269841D01*
X2517343Y4256227D01*
X2513177Y4241596D01*
X2511094Y4237736D01*
X2507640Y4235145D01*
X2503424Y4234180D01*
X2499156Y4235145D01*
X2495702Y4237736D01*
X2493619Y4241596D01*
X2489454Y4256227D01*
X2483713Y4269841D01*
X2476296Y4282592D01*
X2467406Y4294378D01*
X2457145Y4304995D01*
X2445664Y4314240D01*
X2433116Y4322013D01*
X2419705Y4328160D01*
X2405634Y4332630D01*
X2391105Y4335373D01*
X2376424Y4336288D01*
X2361692Y4335373D01*
X2347163Y4332630D01*
X2333091Y4328160D01*
X2319680Y4322013D01*
X2307132Y4314240D01*
X2295652Y4304995D01*
X2285390Y4294378D01*
X2276500Y4282592D01*
X2269083Y4269841D01*
X2263343Y4256227D01*
X2259177Y4241596D01*
X2257094Y4237736D01*
X2253640Y4235145D01*
X2249424Y4234180D01*
X2245156Y4235145D01*
X2241702Y4237736D01*
X2239619Y4241596D01*
X2235454Y4256227D01*
X2229713Y4269841D01*
X2222296Y4282592D01*
X2213406Y4294378D01*
X2203145Y4304995D01*
X2191664Y4314240D01*
X2179116Y4322013D01*
X2165705Y4328160D01*
X2151634Y4332630D01*
X2137105Y4335373D01*
X2122424Y4336288D01*
X2107692Y4335373D01*
X2093163Y4332630D01*
X2079091Y4328160D01*
X2065680Y4322013D01*
X2053132Y4314240D01*
X2041652Y4304995D01*
X2031390Y4294378D01*
X2022500Y4282592D01*
X2015083Y4269841D01*
X2009343Y4256227D01*
X2005177Y4241596D01*
X2003094Y4237736D01*
X1999640Y4235145D01*
X1995424Y4234180D01*
X1991156Y4235145D01*
X1987702Y4237736D01*
X1985619Y4241596D01*
X1981454Y4256227D01*
X1975713Y4269841D01*
X1968296Y4282592D01*
X1959406Y4294378D01*
X1949145Y4304995D01*
X1937664Y4314240D01*
X1925116Y4322013D01*
X1911705Y4328160D01*
X1897634Y4332630D01*
X1883105Y4335373D01*
X1868424Y4336288D01*
X1853692Y4335373D01*
X1839163Y4332630D01*
X1825091Y4328160D01*
X1811680Y4322013D01*
X1799132Y4314240D01*
X1787652Y4304995D01*
X1777390Y4294378D01*
X1768500Y4282592D01*
X1761083Y4269841D01*
X1755343Y4256227D01*
X1751177Y4241596D01*
X1749094Y4237736D01*
X1745640Y4235145D01*
X1741424Y4234180D01*
X1737156Y4235145D01*
X1733702Y4237736D01*
X1731619Y4241596D01*
X1727454Y4256227D01*
X1721713Y4269841D01*
X1714296Y4282592D01*
X1705406Y4294378D01*
X1695145Y4304995D01*
X1683664Y4314240D01*
X1671116Y4322013D01*
X1657705Y4328160D01*
X1643634Y4332630D01*
X1629105Y4335373D01*
X1614424Y4336288D01*
X1599692Y4335373D01*
X1585163Y4332630D01*
X1571091Y4328160D01*
X1557680Y4322013D01*
X1545132Y4314240D01*
X1533652Y4304995D01*
X1523390Y4294378D01*
X1514500Y4282592D01*
X1507083Y4269841D01*
X1501343Y4256227D01*
X1497177Y4241596D01*
X1495094Y4237736D01*
X1491640Y4235145D01*
X1487424Y4234180D01*
X1483156Y4235145D01*
X1479702Y4237736D01*
X1477619Y4241596D01*
X1473454Y4256227D01*
X1467713Y4269841D01*
X1460296Y4282592D01*
X1451406Y4294378D01*
X1441145Y4304995D01*
X1429664Y4314240D01*
X1417116Y4322013D01*
X1403705Y4328160D01*
X1389634Y4332630D01*
X1375105Y4335373D01*
X1360424Y4336288D01*
X1345692Y4335373D01*
X1331163Y4332630D01*
X1317091Y4328160D01*
X1303680Y4322013D01*
X1291132Y4314240D01*
X1279652Y4304995D01*
X1269390Y4294378D01*
X1260500Y4282592D01*
X1253083Y4269841D01*
X1247343Y4256227D01*
X1243330Y4242054D01*
X1242060Y4233976D01*
X1240586Y4230065D01*
X1237640Y4227068D01*
X1233779Y4225544D01*
X1229614Y4225645D01*
X1225854Y4227423D01*
X1223111Y4230624D01*
X1221892Y4234789D01*
X1218742Y4249216D01*
X1213815Y4263136D01*
X1207211Y4276344D01*
X1199083Y4288637D01*
X1189482Y4299864D01*
X1178560Y4309770D01*
X1166520Y4318304D01*
X1153515Y4325315D01*
X1139748Y4330649D01*
X1125474Y4334205D01*
X1110792Y4336034D01*
X1096060Y4336034D01*
X1081379Y4334205D01*
X1067104Y4330649D01*
X1053338Y4325315D01*
X1040333Y4318304D01*
X1028293Y4309770D01*
X1017371Y4299864D01*
X1007770Y4288637D01*
X999642Y4276344D01*
X993038Y4263136D01*
X988110Y4249216D01*
X984961Y4234789D01*
X983640Y4220108D01*
X984046Y4205325D01*
X986332Y4190746D01*
X990396Y4176572D01*
X996137Y4162958D01*
X1003503Y4150207D01*
X1012393Y4138422D01*
X1022654Y4127804D01*
X1034186Y4118559D01*
X1046734Y4110786D01*
X1060145Y4104640D01*
X1074166Y4100169D01*
X1088694Y4097426D01*
G37*
G36*
X4655007Y4096765D02*
G01*
X4669739Y4096765D01*
X4684420Y4098594D01*
X4698695Y4102150D01*
X4712462Y4107484D01*
X4725466Y4114495D01*
X4737506Y4123029D01*
X4748428Y4132935D01*
X4758029Y4144162D01*
X4766157Y4156456D01*
X4772761Y4169664D01*
X4777689Y4183583D01*
X4779467Y4191711D01*
X4780991Y4195318D01*
X4783785Y4198061D01*
X4787442Y4199534D01*
X4791303Y4199534D01*
X4794961Y4198061D01*
X4797755Y4195318D01*
X4799279Y4191711D01*
X4801057Y4183583D01*
X4805984Y4169664D01*
X4812588Y4156456D01*
X4820716Y4144162D01*
X4830318Y4132935D01*
X4841240Y4123029D01*
X4853279Y4114495D01*
X4866284Y4107484D01*
X4880051Y4102150D01*
X4894326Y4098594D01*
X4909007Y4096765D01*
X4923739Y4096765D01*
X4938420Y4098594D01*
X4952695Y4102150D01*
X4966462Y4107484D01*
X4979466Y4114495D01*
X4991506Y4123029D01*
X5002428Y4132935D01*
X5012029Y4144162D01*
X5020157Y4156456D01*
X5026761Y4169664D01*
X5031689Y4183583D01*
X5033467Y4191711D01*
X5034991Y4195318D01*
X5037785Y4198061D01*
X5041442Y4199534D01*
X5045303Y4199534D01*
X5048961Y4198061D01*
X5051755Y4195318D01*
X5053279Y4191711D01*
X5055057Y4183583D01*
X5059984Y4169664D01*
X5066588Y4156456D01*
X5074716Y4144162D01*
X5084318Y4132935D01*
X5095240Y4123029D01*
X5107279Y4114495D01*
X5120284Y4107484D01*
X5134051Y4102150D01*
X5148326Y4098594D01*
X5163007Y4096765D01*
X5177739Y4096765D01*
X5192420Y4098594D01*
X5206695Y4102150D01*
X5220462Y4107484D01*
X5233466Y4114495D01*
X5245506Y4123029D01*
X5256428Y4132935D01*
X5266029Y4144162D01*
X5274157Y4156456D01*
X5280761Y4169664D01*
X5285689Y4183583D01*
X5288838Y4198010D01*
X5290210Y4212691D01*
X5289753Y4227474D01*
X5287467Y4242054D01*
X5283403Y4256227D01*
X5277662Y4269841D01*
X5270296Y4282592D01*
X5261406Y4294378D01*
X5251145Y4304995D01*
X5239613Y4314240D01*
X5227066Y4322013D01*
X5213654Y4328160D01*
X5199634Y4332630D01*
X5185105Y4335373D01*
X5170373Y4336288D01*
X5155641Y4335373D01*
X5141112Y4332630D01*
X5127091Y4328160D01*
X5113680Y4322013D01*
X5101132Y4314240D01*
X5089601Y4304995D01*
X5079339Y4294378D01*
X5070449Y4282592D01*
X5063083Y4269841D01*
X5057343Y4256227D01*
X5053126Y4241596D01*
X5051094Y4237736D01*
X5047640Y4235145D01*
X5043373Y4234180D01*
X5039106Y4235145D01*
X5035651Y4237736D01*
X5033619Y4241596D01*
X5029403Y4256227D01*
X5023662Y4269841D01*
X5016296Y4282592D01*
X5007406Y4294378D01*
X4997145Y4304995D01*
X4985613Y4314240D01*
X4973066Y4322013D01*
X4959654Y4328160D01*
X4945634Y4332630D01*
X4931105Y4335373D01*
X4916373Y4336288D01*
X4901641Y4335373D01*
X4887112Y4332630D01*
X4873091Y4328160D01*
X4859680Y4322013D01*
X4847132Y4314240D01*
X4835601Y4304995D01*
X4825339Y4294378D01*
X4816449Y4282592D01*
X4809083Y4269841D01*
X4803343Y4256227D01*
X4799126Y4241596D01*
X4797094Y4237736D01*
X4793640Y4235145D01*
X4789373Y4234180D01*
X4785106Y4235145D01*
X4781651Y4237736D01*
X4779619Y4241596D01*
X4775403Y4256227D01*
X4769662Y4269841D01*
X4762296Y4282592D01*
X4753406Y4294378D01*
X4743145Y4304995D01*
X4731613Y4314240D01*
X4719066Y4322013D01*
X4705654Y4328160D01*
X4691634Y4332630D01*
X4677105Y4335373D01*
X4662373Y4336288D01*
X4647641Y4335373D01*
X4633112Y4332630D01*
X4619091Y4328160D01*
X4605680Y4322013D01*
X4593132Y4314240D01*
X4581601Y4304995D01*
X4571339Y4294378D01*
X4562449Y4282592D01*
X4555083Y4269841D01*
X4549343Y4256227D01*
X4545279Y4242054D01*
X4542993Y4227474D01*
X4542586Y4212691D01*
X4543907Y4198010D01*
X4547057Y4183583D01*
X4551984Y4169664D01*
X4558588Y4156456D01*
X4566716Y4144162D01*
X4576318Y4132935D01*
X4587240Y4123029D01*
X4599279Y4114495D01*
X4612284Y4107484D01*
X4626051Y4102150D01*
X4640326Y4098594D01*
G37*
G36*
X4355033Y4109262D02*
G01*
X4355033Y4163060D01*
X4301286Y4163060D01*
X4304588Y4156456D01*
X4312716Y4144162D01*
X4322318Y4132935D01*
X4333240Y4123029D01*
X4345279Y4114495D01*
G37*
G36*
X4461713Y4109262D02*
G01*
X4471466Y4114495D01*
X4483506Y4123029D01*
X4494428Y4132935D01*
X4504029Y4144162D01*
X4512157Y4156456D01*
X4515459Y4163060D01*
X4461713Y4163060D01*
G37*
G36*
X4461713Y4269740D02*
G01*
X4515713Y4269740D01*
X4508296Y4282592D01*
X4499406Y4294378D01*
X4489145Y4304995D01*
X4477613Y4314240D01*
X4465066Y4322013D01*
X4461713Y4323537D01*
G37*
G36*
X4301032Y4269740D02*
G01*
X4355033Y4269740D01*
X4355033Y4323537D01*
X4351680Y4322013D01*
X4339132Y4314240D01*
X4327601Y4304995D01*
X4317339Y4294378D01*
X4308449Y4282592D01*
G37*
G36*
X4151426Y5620512D02*
G01*
X4166108Y5621426D01*
X4180636Y5624169D01*
X4194708Y5628640D01*
X4208119Y5634786D01*
X4220667Y5642559D01*
X4232148Y5651804D01*
X4242409Y5662422D01*
X4251299Y5674207D01*
X4258716Y5686958D01*
X4264456Y5700572D01*
X4268622Y5715203D01*
X4270705Y5719064D01*
X4274159Y5721654D01*
X4278426Y5722620D01*
X4282643Y5721654D01*
X4286097Y5719064D01*
X4288180Y5715203D01*
X4292346Y5700572D01*
X4298086Y5686958D01*
X4305503Y5674207D01*
X4314393Y5662422D01*
X4324654Y5651804D01*
X4336135Y5642559D01*
X4348683Y5634786D01*
X4362094Y5628640D01*
X4376166Y5624169D01*
X4390694Y5621426D01*
X4405426Y5620512D01*
X4420108Y5621426D01*
X4434636Y5624169D01*
X4448708Y5628640D01*
X4462119Y5634786D01*
X4474667Y5642559D01*
X4486148Y5651804D01*
X4496409Y5662422D01*
X4505299Y5674207D01*
X4512716Y5686958D01*
X4518456Y5700572D01*
X4522622Y5715203D01*
X4524705Y5719064D01*
X4528159Y5721654D01*
X4532426Y5722620D01*
X4536643Y5721654D01*
X4540097Y5719064D01*
X4542180Y5715203D01*
X4546346Y5700572D01*
X4552086Y5686958D01*
X4559503Y5674207D01*
X4568393Y5662422D01*
X4578654Y5651804D01*
X4590135Y5642559D01*
X4602683Y5634786D01*
X4616094Y5628640D01*
X4630166Y5624169D01*
X4644694Y5621426D01*
X4659426Y5620512D01*
X4674108Y5621426D01*
X4688636Y5624169D01*
X4702708Y5628640D01*
X4716119Y5634786D01*
X4728667Y5642559D01*
X4740148Y5651804D01*
X4750409Y5662422D01*
X4759299Y5674207D01*
X4766716Y5686958D01*
X4772456Y5700572D01*
X4776622Y5715203D01*
X4778705Y5719064D01*
X4782159Y5721654D01*
X4786426Y5722620D01*
X4790643Y5721654D01*
X4794097Y5719064D01*
X4796180Y5715203D01*
X4800346Y5700572D01*
X4806086Y5686958D01*
X4813503Y5674207D01*
X4822393Y5662422D01*
X4832654Y5651804D01*
X4844135Y5642559D01*
X4856683Y5634786D01*
X4870094Y5628640D01*
X4884166Y5624169D01*
X4898694Y5621426D01*
X4913426Y5620512D01*
X4928108Y5621426D01*
X4942636Y5624169D01*
X4956708Y5628640D01*
X4970119Y5634786D01*
X4982667Y5642559D01*
X4994148Y5651804D01*
X5004409Y5662422D01*
X5013299Y5674207D01*
X5020716Y5686958D01*
X5026456Y5700572D01*
X5027574Y5704535D01*
X5029504Y5708192D01*
X5032705Y5710783D01*
X5036667Y5711850D01*
X5040782Y5711291D01*
X5044287Y5709158D01*
X5046675Y5705754D01*
X5047538Y5701741D01*
X5047538Y5646978D01*
X5048250Y5640679D01*
X5050129Y5635193D01*
X5053228Y5630316D01*
X5057292Y5626201D01*
X5062220Y5623153D01*
X5067655Y5621223D01*
X5074005Y5620512D01*
X5260797Y5620512D01*
X5267147Y5621223D01*
X5272582Y5623153D01*
X5277510Y5626201D01*
X5281574Y5630316D01*
X5284673Y5635193D01*
X5286552Y5640679D01*
X5287314Y5646978D01*
X5287314Y5833821D01*
X5286552Y5840120D01*
X5284673Y5845606D01*
X5281574Y5850483D01*
X5277510Y5854598D01*
X5272582Y5857646D01*
X5267147Y5859576D01*
X5260797Y5860288D01*
X5074005Y5860288D01*
X5067655Y5859576D01*
X5062220Y5857646D01*
X5057292Y5854598D01*
X5053228Y5850483D01*
X5050129Y5845606D01*
X5048250Y5840120D01*
X5047538Y5833821D01*
X5047538Y5779211D01*
X5046726Y5775248D01*
X5044440Y5771896D01*
X5041036Y5769711D01*
X5037023Y5769051D01*
X5033111Y5769965D01*
X5029860Y5772353D01*
X5027777Y5775807D01*
X5023764Y5787136D01*
X5017211Y5800344D01*
X5009083Y5812637D01*
X4999482Y5823864D01*
X4988560Y5833770D01*
X4976520Y5842304D01*
X4963515Y5849315D01*
X4949748Y5854649D01*
X4935423Y5858205D01*
X4920792Y5860034D01*
X4906010Y5860034D01*
X4891379Y5858205D01*
X4877054Y5854649D01*
X4863287Y5849315D01*
X4850282Y5842304D01*
X4838242Y5833770D01*
X4827371Y5823864D01*
X4817719Y5812637D01*
X4809591Y5800344D01*
X4803038Y5787136D01*
X4798110Y5773216D01*
X4796332Y5765088D01*
X4794758Y5761482D01*
X4791964Y5758738D01*
X4788357Y5757265D01*
X4784445Y5757265D01*
X4780838Y5758738D01*
X4778044Y5761482D01*
X4776470Y5765088D01*
X4774692Y5773216D01*
X4769764Y5787136D01*
X4763211Y5800344D01*
X4755083Y5812637D01*
X4745482Y5823864D01*
X4734560Y5833770D01*
X4722520Y5842304D01*
X4709515Y5849315D01*
X4695748Y5854649D01*
X4681423Y5858205D01*
X4666792Y5860034D01*
X4652010Y5860034D01*
X4637379Y5858205D01*
X4623054Y5854649D01*
X4609287Y5849315D01*
X4596282Y5842304D01*
X4584242Y5833770D01*
X4573371Y5823864D01*
X4563719Y5812637D01*
X4555591Y5800344D01*
X4549038Y5787136D01*
X4544110Y5773216D01*
X4542332Y5765088D01*
X4540758Y5761482D01*
X4537964Y5758738D01*
X4534357Y5757265D01*
X4530445Y5757265D01*
X4526838Y5758738D01*
X4524044Y5761482D01*
X4522470Y5765088D01*
X4520692Y5773216D01*
X4515764Y5787136D01*
X4509211Y5800344D01*
X4501083Y5812637D01*
X4491482Y5823864D01*
X4480560Y5833770D01*
X4468520Y5842304D01*
X4455515Y5849315D01*
X4441748Y5854649D01*
X4427423Y5858205D01*
X4412792Y5860034D01*
X4398010Y5860034D01*
X4383379Y5858205D01*
X4369054Y5854649D01*
X4355287Y5849315D01*
X4342282Y5842304D01*
X4330242Y5833770D01*
X4319371Y5823864D01*
X4309719Y5812637D01*
X4301591Y5800344D01*
X4295038Y5787136D01*
X4290110Y5773216D01*
X4288332Y5765088D01*
X4286758Y5761482D01*
X4283964Y5758738D01*
X4280357Y5757265D01*
X4276445Y5757265D01*
X4272838Y5758738D01*
X4270044Y5761482D01*
X4268470Y5765088D01*
X4266692Y5773216D01*
X4261764Y5787136D01*
X4255211Y5800344D01*
X4247083Y5812637D01*
X4237431Y5823864D01*
X4226560Y5833770D01*
X4214520Y5842304D01*
X4201515Y5849315D01*
X4187748Y5854649D01*
X4173423Y5858205D01*
X4158792Y5860034D01*
X4144010Y5860034D01*
X4129379Y5858205D01*
X4115054Y5854649D01*
X4101287Y5849315D01*
X4088282Y5842304D01*
X4076242Y5833770D01*
X4065371Y5823864D01*
X4055719Y5812637D01*
X4047591Y5800344D01*
X4041038Y5787136D01*
X4036110Y5773216D01*
X4032961Y5758789D01*
X4031589Y5744108D01*
X4032046Y5729325D01*
X4034332Y5714644D01*
X4038346Y5700572D01*
X4044086Y5686958D01*
X4051503Y5674207D01*
X4060393Y5662422D01*
X4070654Y5651804D01*
X4082135Y5642559D01*
X4094683Y5634786D01*
X4108094Y5628640D01*
X4122165Y5624169D01*
X4136694Y5621426D01*
G37*
G36*
X1103426Y5620512D02*
G01*
X1118158Y5621426D01*
X1132687Y5624169D01*
X1146708Y5628640D01*
X1160119Y5634786D01*
X1172667Y5642559D01*
X1184198Y5651804D01*
X1194460Y5662422D01*
X1203350Y5674207D01*
X1210716Y5686958D01*
X1216456Y5700572D01*
X1220673Y5715203D01*
X1222705Y5719064D01*
X1226159Y5721654D01*
X1230426Y5722620D01*
X1234694Y5721654D01*
X1238148Y5719064D01*
X1240180Y5715203D01*
X1244396Y5700572D01*
X1250137Y5686958D01*
X1257503Y5674207D01*
X1266393Y5662422D01*
X1276654Y5651804D01*
X1288186Y5642559D01*
X1300734Y5634786D01*
X1314145Y5628640D01*
X1328166Y5624169D01*
X1342694Y5621426D01*
X1357426Y5620512D01*
X1372158Y5621426D01*
X1386687Y5624169D01*
X1400708Y5628640D01*
X1414119Y5634786D01*
X1426667Y5642559D01*
X1438198Y5651804D01*
X1448460Y5662422D01*
X1457350Y5674207D01*
X1464716Y5686958D01*
X1470456Y5700572D01*
X1474673Y5715203D01*
X1476705Y5719064D01*
X1480159Y5721654D01*
X1484426Y5722620D01*
X1488694Y5721654D01*
X1492148Y5719064D01*
X1494180Y5715203D01*
X1498396Y5700572D01*
X1504137Y5686958D01*
X1511503Y5674207D01*
X1520393Y5662422D01*
X1530654Y5651804D01*
X1542186Y5642559D01*
X1554734Y5634786D01*
X1568145Y5628640D01*
X1582166Y5624169D01*
X1596694Y5621426D01*
X1611426Y5620512D01*
X1626158Y5621426D01*
X1640687Y5624169D01*
X1654708Y5628640D01*
X1668119Y5634786D01*
X1680667Y5642559D01*
X1692198Y5651804D01*
X1702460Y5662422D01*
X1711350Y5674207D01*
X1718716Y5686958D01*
X1724456Y5700572D01*
X1728673Y5715203D01*
X1730705Y5719064D01*
X1734159Y5721654D01*
X1738426Y5722620D01*
X1742693Y5721654D01*
X1746148Y5719064D01*
X1748180Y5715203D01*
X1752396Y5700572D01*
X1758137Y5686958D01*
X1765503Y5674207D01*
X1774393Y5662422D01*
X1784654Y5651804D01*
X1796186Y5642559D01*
X1808734Y5634786D01*
X1822145Y5628640D01*
X1836166Y5624169D01*
X1850694Y5621426D01*
X1865426Y5620512D01*
X1880158Y5621426D01*
X1894687Y5624169D01*
X1908708Y5628640D01*
X1922119Y5634786D01*
X1934667Y5642559D01*
X1946198Y5651804D01*
X1956460Y5662422D01*
X1965350Y5674207D01*
X1972716Y5686958D01*
X1978456Y5700572D01*
X1982673Y5715203D01*
X1984705Y5719064D01*
X1988159Y5721654D01*
X1992426Y5722620D01*
X1996693Y5721654D01*
X2000148Y5719064D01*
X2002180Y5715203D01*
X2006396Y5700572D01*
X2012137Y5686958D01*
X2019503Y5674207D01*
X2028393Y5662422D01*
X2038654Y5651804D01*
X2050186Y5642559D01*
X2062734Y5634786D01*
X2076145Y5628640D01*
X2090166Y5624169D01*
X2104694Y5621426D01*
X2119426Y5620512D01*
X2134158Y5621426D01*
X2148687Y5624169D01*
X2162708Y5628640D01*
X2176119Y5634786D01*
X2188667Y5642559D01*
X2200198Y5651804D01*
X2210460Y5662422D01*
X2219350Y5674207D01*
X2226716Y5686958D01*
X2232456Y5700572D01*
X2236673Y5715203D01*
X2238705Y5719064D01*
X2242159Y5721654D01*
X2246426Y5722620D01*
X2250694Y5721654D01*
X2254148Y5719064D01*
X2256180Y5715203D01*
X2260396Y5700572D01*
X2266137Y5686958D01*
X2273503Y5674207D01*
X2282393Y5662422D01*
X2292654Y5651804D01*
X2304186Y5642559D01*
X2316734Y5634786D01*
X2330145Y5628640D01*
X2344166Y5624169D01*
X2358694Y5621426D01*
X2373426Y5620512D01*
X2388158Y5621426D01*
X2402687Y5624169D01*
X2416708Y5628640D01*
X2430119Y5634786D01*
X2442667Y5642559D01*
X2454198Y5651804D01*
X2464460Y5662422D01*
X2473350Y5674207D01*
X2480716Y5686958D01*
X2486456Y5700572D01*
X2490673Y5715203D01*
X2492705Y5719064D01*
X2496159Y5721654D01*
X2500426Y5722620D01*
X2504694Y5721654D01*
X2508148Y5719064D01*
X2510180Y5715203D01*
X2514396Y5700572D01*
X2520137Y5686958D01*
X2527503Y5674207D01*
X2536393Y5662422D01*
X2546654Y5651804D01*
X2558186Y5642559D01*
X2570734Y5634786D01*
X2584145Y5628640D01*
X2598166Y5624169D01*
X2612694Y5621426D01*
X2627426Y5620512D01*
X2642158Y5621426D01*
X2656687Y5624169D01*
X2670708Y5628640D01*
X2684119Y5634786D01*
X2696667Y5642559D01*
X2708198Y5651804D01*
X2718460Y5662422D01*
X2727350Y5674207D01*
X2734716Y5686958D01*
X2740456Y5700572D01*
X2744622Y5715203D01*
X2746705Y5719013D01*
X2750159Y5721654D01*
X2754426Y5722569D01*
X2758643Y5721654D01*
X2762148Y5719013D01*
X2764180Y5715203D01*
X2768346Y5700572D01*
X2774086Y5686958D01*
X2781503Y5674207D01*
X2790393Y5662422D01*
X2800654Y5651804D01*
X2812135Y5642559D01*
X2824683Y5634786D01*
X2838094Y5628640D01*
X2852166Y5624169D01*
X2866694Y5621426D01*
X2881426Y5620512D01*
X2896108Y5621426D01*
X2910636Y5624169D01*
X2924708Y5628640D01*
X2938119Y5634786D01*
X2950667Y5642559D01*
X2962148Y5651804D01*
X2972409Y5662422D01*
X2981299Y5674207D01*
X2988716Y5686958D01*
X2994456Y5700572D01*
X2998622Y5715203D01*
X3000705Y5719064D01*
X3004159Y5721654D01*
X3008426Y5722620D01*
X3012643Y5721654D01*
X3016097Y5719064D01*
X3018180Y5715203D01*
X3022346Y5700572D01*
X3028086Y5686958D01*
X3035503Y5674207D01*
X3044393Y5662422D01*
X3054654Y5651804D01*
X3066135Y5642559D01*
X3078683Y5634786D01*
X3092094Y5628640D01*
X3106166Y5624169D01*
X3120694Y5621426D01*
X3135426Y5620512D01*
X3150108Y5621426D01*
X3164636Y5624169D01*
X3178708Y5628640D01*
X3192119Y5634786D01*
X3204667Y5642559D01*
X3216148Y5651804D01*
X3226409Y5662422D01*
X3235299Y5674207D01*
X3242716Y5686958D01*
X3248456Y5700572D01*
X3252622Y5715203D01*
X3254705Y5719064D01*
X3258159Y5721654D01*
X3262426Y5722620D01*
X3266643Y5721654D01*
X3270097Y5719064D01*
X3272180Y5715203D01*
X3276346Y5700572D01*
X3282086Y5686958D01*
X3289503Y5674207D01*
X3298393Y5662422D01*
X3308654Y5651804D01*
X3320135Y5642559D01*
X3332683Y5634786D01*
X3346094Y5628640D01*
X3360165Y5624169D01*
X3374694Y5621426D01*
X3389426Y5620512D01*
X3404108Y5621426D01*
X3418636Y5624169D01*
X3432708Y5628640D01*
X3446119Y5634786D01*
X3458667Y5642559D01*
X3470148Y5651804D01*
X3480409Y5662422D01*
X3489299Y5674207D01*
X3496716Y5686958D01*
X3502456Y5700572D01*
X3506622Y5715203D01*
X3508705Y5719064D01*
X3512159Y5721654D01*
X3516426Y5722620D01*
X3520643Y5721654D01*
X3524097Y5719064D01*
X3526180Y5715203D01*
X3530346Y5700572D01*
X3536086Y5686958D01*
X3543503Y5674207D01*
X3552393Y5662422D01*
X3562654Y5651804D01*
X3574135Y5642559D01*
X3586683Y5634786D01*
X3600094Y5628640D01*
X3614165Y5624169D01*
X3628694Y5621426D01*
X3643426Y5620512D01*
X3658108Y5621426D01*
X3672636Y5624169D01*
X3686708Y5628640D01*
X3700119Y5634786D01*
X3712667Y5642559D01*
X3724148Y5651804D01*
X3734409Y5662422D01*
X3743299Y5674207D01*
X3750716Y5686958D01*
X3756456Y5700572D01*
X3760470Y5714746D01*
X3762756Y5729325D01*
X3763213Y5744108D01*
X3761841Y5758789D01*
X3758692Y5773216D01*
X3753764Y5787136D01*
X3747211Y5800344D01*
X3739083Y5812637D01*
X3729431Y5823864D01*
X3718560Y5833770D01*
X3706520Y5842304D01*
X3693515Y5849315D01*
X3679748Y5854649D01*
X3665423Y5858205D01*
X3650792Y5860034D01*
X3636010Y5860034D01*
X3621379Y5858205D01*
X3607054Y5854649D01*
X3593287Y5849315D01*
X3580282Y5842304D01*
X3568242Y5833770D01*
X3557371Y5823864D01*
X3547719Y5812637D01*
X3539591Y5800344D01*
X3533038Y5787136D01*
X3528110Y5773216D01*
X3526332Y5765088D01*
X3524758Y5761482D01*
X3521964Y5758738D01*
X3518357Y5757265D01*
X3514445Y5757265D01*
X3510838Y5758738D01*
X3508044Y5761482D01*
X3506470Y5765088D01*
X3504692Y5773216D01*
X3499764Y5787136D01*
X3493211Y5800344D01*
X3485083Y5812637D01*
X3475431Y5823864D01*
X3464560Y5833770D01*
X3452520Y5842304D01*
X3439515Y5849315D01*
X3425748Y5854649D01*
X3411423Y5858205D01*
X3396792Y5860034D01*
X3382010Y5860034D01*
X3367379Y5858205D01*
X3353054Y5854649D01*
X3339287Y5849315D01*
X3326282Y5842304D01*
X3314242Y5833770D01*
X3303371Y5823864D01*
X3293719Y5812637D01*
X3285591Y5800344D01*
X3279038Y5787136D01*
X3274110Y5773216D01*
X3272332Y5765088D01*
X3270758Y5761482D01*
X3267964Y5758738D01*
X3264357Y5757265D01*
X3260445Y5757265D01*
X3256838Y5758738D01*
X3254044Y5761482D01*
X3252470Y5765088D01*
X3250692Y5773216D01*
X3245764Y5787136D01*
X3239211Y5800344D01*
X3231083Y5812637D01*
X3221431Y5823864D01*
X3210560Y5833770D01*
X3198520Y5842304D01*
X3185515Y5849315D01*
X3171748Y5854649D01*
X3157423Y5858205D01*
X3142792Y5860034D01*
X3128010Y5860034D01*
X3113379Y5858205D01*
X3099054Y5854649D01*
X3085287Y5849315D01*
X3072282Y5842304D01*
X3060242Y5833770D01*
X3049371Y5823864D01*
X3039719Y5812637D01*
X3031591Y5800344D01*
X3025038Y5787136D01*
X3020110Y5773216D01*
X3018332Y5765088D01*
X3016758Y5761482D01*
X3013964Y5758738D01*
X3010357Y5757265D01*
X3006445Y5757265D01*
X3002838Y5758738D01*
X3000044Y5761482D01*
X2998470Y5765088D01*
X2996692Y5773216D01*
X2991764Y5787136D01*
X2985211Y5800344D01*
X2977083Y5812637D01*
X2967431Y5823864D01*
X2956560Y5833770D01*
X2944520Y5842304D01*
X2931515Y5849315D01*
X2917748Y5854649D01*
X2903423Y5858205D01*
X2888792Y5860034D01*
X2874010Y5860034D01*
X2859379Y5858205D01*
X2845054Y5854649D01*
X2831287Y5849315D01*
X2818282Y5842304D01*
X2806242Y5833770D01*
X2795371Y5823864D01*
X2785719Y5812637D01*
X2777591Y5800344D01*
X2771038Y5787136D01*
X2766110Y5773216D01*
X2764332Y5765139D01*
X2762758Y5761532D01*
X2759964Y5758789D01*
X2756357Y5757316D01*
X2752445Y5757316D01*
X2748838Y5758789D01*
X2746044Y5761532D01*
X2744470Y5765139D01*
X2742742Y5773216D01*
X2737815Y5787136D01*
X2731211Y5800344D01*
X2723083Y5812637D01*
X2713482Y5823864D01*
X2702560Y5833770D01*
X2690520Y5842304D01*
X2677515Y5849315D01*
X2663748Y5854649D01*
X2649474Y5858205D01*
X2634792Y5860034D01*
X2620060Y5860034D01*
X2605379Y5858205D01*
X2591104Y5854649D01*
X2577338Y5849315D01*
X2564333Y5842304D01*
X2552293Y5833770D01*
X2541371Y5823864D01*
X2531770Y5812637D01*
X2523642Y5800344D01*
X2517038Y5787136D01*
X2512110Y5773216D01*
X2510332Y5765088D01*
X2508808Y5761482D01*
X2506014Y5758738D01*
X2502357Y5757265D01*
X2498496Y5757265D01*
X2494838Y5758738D01*
X2492044Y5761482D01*
X2490520Y5765088D01*
X2488742Y5773216D01*
X2483815Y5787136D01*
X2477211Y5800344D01*
X2469083Y5812637D01*
X2459482Y5823864D01*
X2448560Y5833770D01*
X2436520Y5842304D01*
X2423515Y5849315D01*
X2409748Y5854649D01*
X2395474Y5858205D01*
X2380792Y5860034D01*
X2366060Y5860034D01*
X2351379Y5858205D01*
X2337104Y5854649D01*
X2323338Y5849315D01*
X2310333Y5842304D01*
X2298293Y5833770D01*
X2287371Y5823864D01*
X2277770Y5812637D01*
X2269642Y5800344D01*
X2263038Y5787136D01*
X2258110Y5773216D01*
X2256332Y5765088D01*
X2254808Y5761482D01*
X2252014Y5758738D01*
X2248357Y5757265D01*
X2244496Y5757265D01*
X2240838Y5758738D01*
X2238044Y5761482D01*
X2236520Y5765088D01*
X2234742Y5773216D01*
X2229561Y5787796D01*
X2229002Y5791504D01*
X2229815Y5795213D01*
X2231948Y5798362D01*
X2627731Y6194094D01*
X2631033Y6196330D01*
X2634945Y6197092D01*
X5485892Y6197092D01*
X5493918Y6197904D01*
X5501132Y6200089D01*
X5507837Y6203645D01*
X5514035Y6208776D01*
X5517134Y6211874D01*
X5522264Y6218072D01*
X5525820Y6224778D01*
X5528005Y6231991D01*
X5528818Y6240018D01*
X5528818Y7431531D01*
X5529580Y7435443D01*
X5531815Y7438694D01*
X5535066Y7440930D01*
X5538978Y7441692D01*
X5591251Y7441692D01*
X5597550Y7442403D01*
X5603036Y7444333D01*
X5607913Y7447381D01*
X5612028Y7451496D01*
X5615076Y7456373D01*
X5617006Y7461859D01*
X5617718Y7468158D01*
X5617718Y7520431D01*
X5618480Y7524343D01*
X5620715Y7527594D01*
X5623966Y7529830D01*
X5627878Y7530592D01*
X6082792Y7530592D01*
X6090818Y7531404D01*
X6098032Y7533589D01*
X6102096Y7535722D01*
X6106210Y7536942D01*
X6110376Y7536332D01*
X6113983Y7534097D01*
X6116320Y7530592D01*
X6117082Y7526375D01*
X6115761Y7521752D01*
X6111189Y7508341D01*
X6108446Y7494422D01*
X6107531Y7480300D01*
X6108446Y7466177D01*
X6111189Y7452258D01*
X6115761Y7438847D01*
X6122060Y7426096D01*
X6129934Y7414310D01*
X6139281Y7403642D01*
X6149898Y7394295D01*
X6161684Y7386421D01*
X6174435Y7380173D01*
X6187846Y7375601D01*
X6201613Y7372858D01*
X6204864Y7371638D01*
X6207506Y7369352D01*
X6209182Y7366304D01*
X6209792Y7362901D01*
X6209792Y7118959D01*
X6209080Y7115200D01*
X6206947Y7111949D01*
X6189573Y7101281D01*
X6177635Y7091934D01*
X6166866Y7081164D01*
X6157518Y7069226D01*
X6149644Y7056221D01*
X6143396Y7042353D01*
X6138875Y7027824D01*
X6136132Y7012889D01*
X6135217Y6997700D01*
X6136132Y6982510D01*
X6138875Y6967575D01*
X6143396Y6953046D01*
X6149644Y6939178D01*
X6157518Y6926173D01*
X6166866Y6914235D01*
X6177635Y6903466D01*
X6189573Y6894118D01*
X6202578Y6886244D01*
X6216446Y6879996D01*
X6230975Y6875475D01*
X6245910Y6872731D01*
X6261100Y6871817D01*
X6276289Y6872731D01*
X6291224Y6875475D01*
X6305753Y6879996D01*
X6319621Y6886244D01*
X6332626Y6894118D01*
X6344564Y6903466D01*
X6355334Y6914235D01*
X6364681Y6926173D01*
X6372555Y6939178D01*
X6378803Y6953046D01*
X6383324Y6967575D01*
X6386068Y6982510D01*
X6386982Y6997700D01*
X6386068Y7012889D01*
X6383324Y7027824D01*
X6378803Y7042353D01*
X6372555Y7056221D01*
X6364681Y7069226D01*
X6355334Y7081164D01*
X6344564Y7091934D01*
X6332626Y7101281D01*
X6319621Y7109155D01*
X6305753Y7115403D01*
X6294170Y7119010D01*
X6290411Y7121093D01*
X6287922Y7124547D01*
X6287008Y7128713D01*
X6287008Y7362901D01*
X6287617Y7366304D01*
X6289294Y7369352D01*
X6291935Y7371638D01*
X6295186Y7372858D01*
X6308953Y7375601D01*
X6322364Y7380173D01*
X6335115Y7386421D01*
X6346901Y7394295D01*
X6357518Y7403642D01*
X6366865Y7414310D01*
X6374790Y7426096D01*
X6381038Y7438847D01*
X6385610Y7452258D01*
X6388354Y7466177D01*
X6389268Y7480300D01*
X6388354Y7494422D01*
X6385610Y7508341D01*
X6381038Y7521752D01*
X6374790Y7534503D01*
X6366865Y7546289D01*
X6357518Y7556957D01*
X6346901Y7566304D01*
X6335115Y7574178D01*
X6322364Y7580426D01*
X6308953Y7584998D01*
X6295034Y7587742D01*
X6280556Y7588707D01*
X6216243Y7588707D01*
X6201765Y7587742D01*
X6187846Y7584998D01*
X6177381Y7581442D01*
X6172911Y7580985D01*
X6168694Y7582509D01*
X6165494Y7585709D01*
X6164021Y7589977D01*
X6164529Y7594447D01*
X6166967Y7598257D01*
X6191605Y7622895D01*
X6194907Y7625130D01*
X6198819Y7625892D01*
X6362852Y7625892D01*
X6369151Y7626603D01*
X6374638Y7628534D01*
X6379514Y7631582D01*
X6383629Y7635697D01*
X6386677Y7640574D01*
X6388608Y7646060D01*
X6389319Y7652359D01*
X6389319Y7816240D01*
X6388608Y7822539D01*
X6386677Y7828025D01*
X6383629Y7832902D01*
X6379514Y7837017D01*
X6374638Y7840065D01*
X6369151Y7841996D01*
X6362852Y7842707D01*
X6133947Y7842707D01*
X6127648Y7841996D01*
X6122162Y7840065D01*
X6117285Y7837017D01*
X6113170Y7832902D01*
X6110122Y7828025D01*
X6108192Y7822539D01*
X6107480Y7816240D01*
X6107480Y7652207D01*
X6106718Y7648295D01*
X6104534Y7644993D01*
X6070295Y7610805D01*
X6066993Y7608570D01*
X6063081Y7607808D01*
X5627878Y7607808D01*
X5623966Y7608570D01*
X5620715Y7610805D01*
X5618480Y7614056D01*
X5617718Y7617968D01*
X5617718Y7670241D01*
X5617006Y7676540D01*
X5615076Y7682026D01*
X5612028Y7686903D01*
X5607913Y7691018D01*
X5603036Y7694066D01*
X5597550Y7695996D01*
X5591251Y7696708D01*
X5389168Y7696708D01*
X5382869Y7695996D01*
X5377383Y7694066D01*
X5372506Y7691018D01*
X5368391Y7686903D01*
X5365343Y7682026D01*
X5363413Y7676540D01*
X5362702Y7670241D01*
X5362702Y7468158D01*
X5363413Y7461859D01*
X5365343Y7456373D01*
X5368391Y7451496D01*
X5372506Y7447381D01*
X5377383Y7444333D01*
X5382869Y7442403D01*
X5389168Y7441692D01*
X5441442Y7441692D01*
X5445353Y7440930D01*
X5448604Y7438694D01*
X5450840Y7435443D01*
X5451602Y7431531D01*
X5451602Y6284468D01*
X5450840Y6280556D01*
X5448604Y6277305D01*
X5445353Y6275070D01*
X5441442Y6274308D01*
X2615234Y6274308D01*
X2607208Y6273495D01*
X2599994Y6271310D01*
X2593289Y6267754D01*
X2587091Y6262624D01*
X2177237Y5852820D01*
X2173986Y5850636D01*
X2170226Y5849823D01*
X2166366Y5850534D01*
X2155748Y5854649D01*
X2141474Y5858205D01*
X2126792Y5860034D01*
X2112060Y5860034D01*
X2097379Y5858205D01*
X2083104Y5854649D01*
X2069338Y5849315D01*
X2056333Y5842304D01*
X2044293Y5833770D01*
X2033371Y5823864D01*
X2023770Y5812637D01*
X2015642Y5800344D01*
X2009038Y5787136D01*
X2004110Y5773216D01*
X2002332Y5765088D01*
X2000808Y5761482D01*
X1998014Y5758738D01*
X1994357Y5757265D01*
X1990496Y5757265D01*
X1986838Y5758738D01*
X1984044Y5761482D01*
X1982520Y5765088D01*
X1980742Y5773216D01*
X1975815Y5787136D01*
X1969211Y5800344D01*
X1961083Y5812637D01*
X1951482Y5823864D01*
X1940560Y5833770D01*
X1928520Y5842304D01*
X1915515Y5849315D01*
X1901748Y5854649D01*
X1887474Y5858205D01*
X1872792Y5860034D01*
X1858060Y5860034D01*
X1843379Y5858205D01*
X1829104Y5854649D01*
X1815338Y5849315D01*
X1802333Y5842304D01*
X1790293Y5833770D01*
X1779371Y5823864D01*
X1769770Y5812637D01*
X1761642Y5800344D01*
X1755038Y5787136D01*
X1750110Y5773216D01*
X1748332Y5765088D01*
X1746808Y5761482D01*
X1744014Y5758738D01*
X1740357Y5757265D01*
X1736496Y5757265D01*
X1732838Y5758738D01*
X1730044Y5761482D01*
X1728520Y5765088D01*
X1726742Y5773216D01*
X1721815Y5787136D01*
X1715211Y5800344D01*
X1707083Y5812637D01*
X1697482Y5823864D01*
X1686560Y5833770D01*
X1674520Y5842304D01*
X1661515Y5849315D01*
X1647748Y5854649D01*
X1633474Y5858205D01*
X1618792Y5860034D01*
X1604060Y5860034D01*
X1589379Y5858205D01*
X1575104Y5854649D01*
X1561338Y5849315D01*
X1548333Y5842304D01*
X1536293Y5833770D01*
X1525371Y5823864D01*
X1515770Y5812637D01*
X1507642Y5800344D01*
X1501038Y5787136D01*
X1496110Y5773216D01*
X1494332Y5765088D01*
X1492808Y5761482D01*
X1490014Y5758738D01*
X1486357Y5757265D01*
X1482496Y5757265D01*
X1478838Y5758738D01*
X1476044Y5761482D01*
X1474520Y5765088D01*
X1472742Y5773216D01*
X1467815Y5787136D01*
X1461211Y5800344D01*
X1453083Y5812637D01*
X1443482Y5823864D01*
X1432560Y5833770D01*
X1420520Y5842304D01*
X1407515Y5849315D01*
X1393748Y5854649D01*
X1379474Y5858205D01*
X1364792Y5860034D01*
X1350060Y5860034D01*
X1335379Y5858205D01*
X1321104Y5854649D01*
X1307338Y5849315D01*
X1294333Y5842304D01*
X1282293Y5833770D01*
X1271371Y5823864D01*
X1261770Y5812637D01*
X1253642Y5800344D01*
X1247038Y5787136D01*
X1242110Y5773216D01*
X1240332Y5765088D01*
X1238808Y5761482D01*
X1236014Y5758738D01*
X1232357Y5757265D01*
X1228496Y5757265D01*
X1224838Y5758738D01*
X1222044Y5761482D01*
X1220520Y5765088D01*
X1218742Y5773216D01*
X1213815Y5787136D01*
X1207211Y5800344D01*
X1199083Y5812637D01*
X1189482Y5823864D01*
X1178560Y5833770D01*
X1166520Y5842304D01*
X1153515Y5849315D01*
X1139748Y5854649D01*
X1125474Y5858205D01*
X1110792Y5860034D01*
X1096060Y5860034D01*
X1081379Y5858205D01*
X1067104Y5854649D01*
X1053338Y5849315D01*
X1040333Y5842304D01*
X1028293Y5833770D01*
X1017371Y5823864D01*
X1007770Y5812637D01*
X999642Y5800344D01*
X993038Y5787136D01*
X988110Y5773216D01*
X984961Y5758789D01*
X983640Y5744108D01*
X984046Y5729325D01*
X986332Y5714746D01*
X990396Y5700572D01*
X996137Y5686958D01*
X1003503Y5674207D01*
X1012393Y5662422D01*
X1022654Y5651804D01*
X1034186Y5642559D01*
X1046734Y5634786D01*
X1060145Y5628640D01*
X1074166Y5624169D01*
X1088694Y5621426D01*
G37*
G36*
X3950766Y5633262D02*
G01*
X3954119Y5634786D01*
X3966667Y5642559D01*
X3978148Y5651804D01*
X3988409Y5662422D01*
X3997299Y5674207D01*
X4004716Y5687060D01*
X3950766Y5687060D01*
G37*
G36*
X3844086Y5633262D02*
G01*
X3844086Y5687060D01*
X3790086Y5687060D01*
X3797503Y5674207D01*
X3806393Y5662422D01*
X3816654Y5651804D01*
X3828135Y5642559D01*
X3840683Y5634786D01*
G37*
G36*
X3950766Y5793740D02*
G01*
X4004513Y5793740D01*
X4001211Y5800344D01*
X3993083Y5812637D01*
X3983431Y5823864D01*
X3972560Y5833770D01*
X3960520Y5842304D01*
X3950766Y5847537D01*
G37*
G36*
X3790289Y5793740D02*
G01*
X3844086Y5793740D01*
X3844086Y5847537D01*
X3834282Y5842304D01*
X3822242Y5833770D01*
X3811371Y5823864D01*
X3801719Y5812637D01*
X3793591Y5800344D01*
G37*
G36*
X1770837Y6415379D02*
G01*
X1773021Y6416344D01*
X1786026Y6424218D01*
X1797964Y6433566D01*
X1808734Y6444335D01*
X1818081Y6456273D01*
X1825955Y6469278D01*
X1826920Y6471462D01*
X1770837Y6471462D01*
G37*
G36*
X1658162Y6415379D02*
G01*
X1658162Y6471462D01*
X1602079Y6471462D01*
X1603044Y6469278D01*
X1610918Y6456273D01*
X1620266Y6444335D01*
X1631035Y6433566D01*
X1642973Y6424218D01*
X1655978Y6416344D01*
G37*
G36*
X2456637Y6415379D02*
G01*
X2458821Y6416344D01*
X2471826Y6424218D01*
X2483764Y6433566D01*
X2494534Y6444335D01*
X2503881Y6456273D01*
X2511755Y6469278D01*
X2512720Y6471462D01*
X2456637Y6471462D01*
G37*
G36*
X2343962Y6415379D02*
G01*
X2343962Y6471462D01*
X2287879Y6471462D01*
X2288844Y6469278D01*
X2296718Y6456273D01*
X2306066Y6444335D01*
X2316835Y6433566D01*
X2328773Y6424218D01*
X2341778Y6416344D01*
G37*
G36*
X3675837Y6428079D02*
G01*
X3678021Y6429044D01*
X3691026Y6436918D01*
X3702964Y6446266D01*
X3713734Y6457035D01*
X3723081Y6468973D01*
X3730955Y6481978D01*
X3731920Y6484162D01*
X3675837Y6484162D01*
G37*
G36*
X3563162Y6428079D02*
G01*
X3563162Y6484162D01*
X3507079Y6484162D01*
X3508044Y6481978D01*
X3515918Y6468973D01*
X3525265Y6457035D01*
X3536035Y6446266D01*
X3547973Y6436918D01*
X3560978Y6429044D01*
G37*
G36*
X1770837Y6584137D02*
G01*
X1826920Y6584137D01*
X1825955Y6586321D01*
X1818081Y6599326D01*
X1808734Y6611264D01*
X1797964Y6622034D01*
X1786026Y6631381D01*
X1773021Y6639255D01*
X1770837Y6640220D01*
G37*
G36*
X2287879Y6584137D02*
G01*
X2343962Y6584137D01*
X2343962Y6640220D01*
X2341778Y6639255D01*
X2328773Y6631381D01*
X2316835Y6622034D01*
X2306066Y6611264D01*
X2296718Y6599326D01*
X2288844Y6586321D01*
G37*
G36*
X1602079Y6584137D02*
G01*
X1658162Y6584137D01*
X1658162Y6640220D01*
X1655978Y6639255D01*
X1642973Y6631381D01*
X1631035Y6622034D01*
X1620266Y6611264D01*
X1610918Y6599326D01*
X1603044Y6586321D01*
G37*
G36*
X2456637Y6584137D02*
G01*
X2512720Y6584137D01*
X2511755Y6586321D01*
X2503881Y6599326D01*
X2494534Y6611264D01*
X2483764Y6622034D01*
X2471826Y6631381D01*
X2458821Y6639255D01*
X2456637Y6640220D01*
G37*
G36*
X3507079Y6596837D02*
G01*
X3563162Y6596837D01*
X3563162Y6652920D01*
X3560978Y6651955D01*
X3547973Y6644081D01*
X3536035Y6634734D01*
X3525265Y6623964D01*
X3515918Y6612026D01*
X3508044Y6599021D01*
G37*
G36*
X3675837Y6596837D02*
G01*
X3731920Y6596837D01*
X3730955Y6599021D01*
X3723081Y6612026D01*
X3713734Y6623964D01*
X3702964Y6634734D01*
X3691026Y6644081D01*
X3678021Y6651955D01*
X3675837Y6652920D01*
G37*
G36*
X5301437Y6885279D02*
G01*
X5303621Y6886244D01*
X5316626Y6894118D01*
X5328564Y6903466D01*
X5339334Y6914235D01*
X5348681Y6926173D01*
X5356555Y6939178D01*
X5357520Y6941362D01*
X5301437Y6941362D01*
G37*
G36*
X5188762Y6885279D02*
G01*
X5188762Y6941362D01*
X5132679Y6941362D01*
X5133644Y6939178D01*
X5141518Y6926173D01*
X5150866Y6914235D01*
X5161635Y6903466D01*
X5173573Y6894118D01*
X5186578Y6886244D01*
G37*
G36*
X5132679Y7054037D02*
G01*
X5188762Y7054037D01*
X5188762Y7110120D01*
X5186578Y7109155D01*
X5173573Y7101281D01*
X5161635Y7091934D01*
X5150866Y7081164D01*
X5141518Y7069226D01*
X5133644Y7056221D01*
G37*
G36*
X5301437Y7054037D02*
G01*
X5357520Y7054037D01*
X5356555Y7056221D01*
X5348681Y7069226D01*
X5339334Y7081164D01*
X5328564Y7091934D01*
X5316626Y7101281D01*
X5303621Y7109155D01*
X5301437Y7110120D01*
G37*
G36*
X2400300Y7417917D02*
G01*
X2415489Y7418831D01*
X2430424Y7421575D01*
X2444953Y7426096D01*
X2458821Y7432344D01*
X2471826Y7440218D01*
X2483764Y7449566D01*
X2494534Y7460335D01*
X2503881Y7472273D01*
X2511755Y7485278D01*
X2518003Y7499146D01*
X2522524Y7513675D01*
X2525268Y7528610D01*
X2526182Y7543800D01*
X2525268Y7558989D01*
X2522524Y7573924D01*
X2518003Y7588453D01*
X2511755Y7602321D01*
X2503881Y7615326D01*
X2494534Y7627264D01*
X2483764Y7638034D01*
X2471826Y7647381D01*
X2458821Y7655255D01*
X2444953Y7661503D01*
X2433370Y7665110D01*
X2429611Y7667193D01*
X2427122Y7670647D01*
X2426208Y7674813D01*
X2426208Y7851902D01*
X2426970Y7855813D01*
X2429205Y7859064D01*
X2432456Y7861300D01*
X2436368Y7862062D01*
X2461971Y7862062D01*
X2468270Y7862773D01*
X2473756Y7864703D01*
X2478633Y7867751D01*
X2482748Y7871866D01*
X2485796Y7876743D01*
X2487726Y7882229D01*
X2488438Y7888528D01*
X2488438Y8037271D01*
X2487726Y8043570D01*
X2485796Y8049056D01*
X2482748Y8053933D01*
X2478633Y8058048D01*
X2473756Y8061096D01*
X2468270Y8063026D01*
X2461971Y8063738D01*
X2313228Y8063738D01*
X2306929Y8063026D01*
X2301443Y8061096D01*
X2296566Y8058048D01*
X2292451Y8053933D01*
X2289403Y8049056D01*
X2287473Y8043570D01*
X2286762Y8037271D01*
X2286762Y7888528D01*
X2287473Y7882229D01*
X2289403Y7876743D01*
X2292451Y7871866D01*
X2296566Y7867751D01*
X2301443Y7864703D01*
X2306929Y7862773D01*
X2313228Y7862062D01*
X2338832Y7862062D01*
X2342743Y7861300D01*
X2345994Y7859064D01*
X2348230Y7855813D01*
X2348992Y7851902D01*
X2348992Y7665059D01*
X2348280Y7661300D01*
X2346147Y7658049D01*
X2328773Y7647381D01*
X2316835Y7638034D01*
X2306066Y7627264D01*
X2296718Y7615326D01*
X2288844Y7602321D01*
X2282596Y7588453D01*
X2278075Y7573924D01*
X2275332Y7558989D01*
X2274417Y7543800D01*
X2275332Y7528610D01*
X2278075Y7513675D01*
X2282596Y7499146D01*
X2288844Y7485278D01*
X2296718Y7472273D01*
X2306066Y7460335D01*
X2316835Y7449566D01*
X2328773Y7440218D01*
X2341778Y7432344D01*
X2355646Y7426096D01*
X2370175Y7421575D01*
X2385110Y7418831D01*
G37*
G36*
X1714500Y7417917D02*
G01*
X1729689Y7418831D01*
X1744624Y7421575D01*
X1759153Y7426096D01*
X1773021Y7432344D01*
X1786026Y7440218D01*
X1797964Y7449566D01*
X1808734Y7460335D01*
X1818081Y7472273D01*
X1825955Y7485278D01*
X1832203Y7499146D01*
X1836724Y7513675D01*
X1839468Y7528610D01*
X1840382Y7543800D01*
X1839468Y7558989D01*
X1836724Y7573924D01*
X1832203Y7588453D01*
X1825955Y7602321D01*
X1818081Y7615326D01*
X1808734Y7627264D01*
X1797964Y7638034D01*
X1786026Y7647381D01*
X1773021Y7655255D01*
X1759102Y7661503D01*
X1755952Y7663738D01*
X1753819Y7666990D01*
X1753107Y7670800D01*
X1753107Y7848092D01*
X1753870Y7852003D01*
X1756105Y7855254D01*
X1759356Y7857490D01*
X1763268Y7858252D01*
X1792681Y7858252D01*
X1798980Y7858963D01*
X1804466Y7860893D01*
X1809343Y7863941D01*
X1813458Y7868056D01*
X1816506Y7872933D01*
X1818436Y7878419D01*
X1819148Y7884718D01*
X1819148Y8041081D01*
X1818436Y8047380D01*
X1816506Y8052866D01*
X1813458Y8057743D01*
X1809343Y8061858D01*
X1804466Y8064906D01*
X1798980Y8066836D01*
X1792681Y8067548D01*
X1636318Y8067548D01*
X1630019Y8066836D01*
X1624533Y8064906D01*
X1619656Y8061858D01*
X1615541Y8057743D01*
X1612493Y8052866D01*
X1610563Y8047380D01*
X1609852Y8041081D01*
X1609852Y7884718D01*
X1610563Y7878419D01*
X1612493Y7872933D01*
X1615541Y7868056D01*
X1619656Y7863941D01*
X1624533Y7860893D01*
X1630019Y7858963D01*
X1636318Y7858252D01*
X1665732Y7858252D01*
X1669643Y7857490D01*
X1672894Y7855254D01*
X1675130Y7852003D01*
X1675892Y7848092D01*
X1675892Y7670800D01*
X1675180Y7666990D01*
X1673047Y7663738D01*
X1669897Y7661503D01*
X1655978Y7655255D01*
X1642973Y7647381D01*
X1631035Y7638034D01*
X1620266Y7627264D01*
X1610918Y7615326D01*
X1603044Y7602321D01*
X1596796Y7588453D01*
X1592275Y7573924D01*
X1589532Y7558989D01*
X1588617Y7543800D01*
X1589532Y7528610D01*
X1592275Y7513675D01*
X1596796Y7499146D01*
X1603044Y7485278D01*
X1610918Y7472273D01*
X1620266Y7460335D01*
X1631035Y7449566D01*
X1642973Y7440218D01*
X1655978Y7432344D01*
X1669846Y7426096D01*
X1684375Y7421575D01*
X1699310Y7418831D01*
G37*
G36*
X3619500Y7430617D02*
G01*
X3634689Y7431531D01*
X3649624Y7434275D01*
X3664153Y7438796D01*
X3678021Y7445044D01*
X3691026Y7452918D01*
X3702964Y7462266D01*
X3713734Y7473035D01*
X3723081Y7484973D01*
X3730955Y7497978D01*
X3737203Y7511846D01*
X3741724Y7526375D01*
X3744468Y7541310D01*
X3745382Y7556500D01*
X3744468Y7571689D01*
X3741724Y7586624D01*
X3737203Y7601153D01*
X3730955Y7615021D01*
X3723081Y7628026D01*
X3713734Y7639964D01*
X3702964Y7650734D01*
X3691026Y7660081D01*
X3678021Y7667955D01*
X3664102Y7674203D01*
X3660952Y7676438D01*
X3658819Y7679690D01*
X3658108Y7683500D01*
X3658108Y7863433D01*
X3658819Y7867192D01*
X3660901Y7870393D01*
X3664000Y7872628D01*
X3667963Y7874508D01*
X3679291Y7881721D01*
X3689604Y7890408D01*
X3698595Y7900416D01*
X3706266Y7911541D01*
X3712311Y7923530D01*
X3716731Y7936280D01*
X3719423Y7949438D01*
X3720337Y7962900D01*
X3719423Y7976362D01*
X3716731Y7989519D01*
X3712311Y8002270D01*
X3706266Y8014258D01*
X3698595Y8025384D01*
X3689604Y8035391D01*
X3679291Y8044078D01*
X3667963Y8051292D01*
X3655720Y8056981D01*
X3642868Y8060944D01*
X3629609Y8063230D01*
X3616147Y8063636D01*
X3602736Y8062315D01*
X3589629Y8059166D01*
X3577082Y8054340D01*
X3565245Y8047888D01*
X3554425Y8039912D01*
X3544722Y8030514D01*
X3536391Y8019948D01*
X3529533Y8008366D01*
X3524250Y7995970D01*
X3520694Y7982966D01*
X3518915Y7969656D01*
X3518915Y7956143D01*
X3520694Y7942834D01*
X3524250Y7929829D01*
X3529533Y7917434D01*
X3536391Y7905851D01*
X3544722Y7895285D01*
X3554425Y7885887D01*
X3565245Y7877911D01*
X3575608Y7872222D01*
X3578402Y7869986D01*
X3580231Y7866888D01*
X3580892Y7863331D01*
X3580892Y7683500D01*
X3580180Y7679690D01*
X3578047Y7676438D01*
X3574897Y7674203D01*
X3560978Y7667955D01*
X3547973Y7660081D01*
X3536035Y7650734D01*
X3525265Y7639964D01*
X3515918Y7628026D01*
X3508044Y7615021D01*
X3501796Y7601153D01*
X3497275Y7586624D01*
X3494532Y7571689D01*
X3493617Y7556500D01*
X3494532Y7541310D01*
X3497275Y7526375D01*
X3501796Y7511846D01*
X3508044Y7497978D01*
X3515918Y7484973D01*
X3525265Y7473035D01*
X3536035Y7462266D01*
X3547973Y7452918D01*
X3560978Y7445044D01*
X3574846Y7438796D01*
X3589375Y7434275D01*
X3604310Y7431531D01*
G37*
G36*
X4789170Y7441692D02*
G01*
X4804562Y7442657D01*
X4819700Y7445400D01*
X4834382Y7449972D01*
X4848402Y7456322D01*
X4861610Y7464298D01*
X4873701Y7473797D01*
X4884572Y7484668D01*
X4894072Y7496759D01*
X4902047Y7509967D01*
X4908397Y7523988D01*
X4912969Y7538669D01*
X4915712Y7553807D01*
X4916678Y7569200D01*
X4915712Y7584592D01*
X4912969Y7599730D01*
X4908397Y7614412D01*
X4902047Y7628432D01*
X4894072Y7641640D01*
X4884572Y7653731D01*
X4873701Y7664602D01*
X4861610Y7674102D01*
X4848402Y7682077D01*
X4834382Y7688427D01*
X4819700Y7692999D01*
X4804562Y7695742D01*
X4789170Y7696708D01*
X4773777Y7695742D01*
X4758639Y7692999D01*
X4743958Y7688427D01*
X4729937Y7682077D01*
X4716729Y7674102D01*
X4704638Y7664602D01*
X4693767Y7653731D01*
X4684268Y7641640D01*
X4676292Y7628432D01*
X4669942Y7614412D01*
X4665370Y7599730D01*
X4662627Y7584592D01*
X4661662Y7569200D01*
X4662627Y7553807D01*
X4665370Y7538669D01*
X4669942Y7523988D01*
X4676292Y7509967D01*
X4684268Y7496759D01*
X4693767Y7484668D01*
X4704638Y7473797D01*
X4716729Y7464298D01*
X4729937Y7456322D01*
X4743958Y7449972D01*
X4758639Y7445400D01*
X4773777Y7442657D01*
G37*
G36*
X4441190Y7441692D02*
G01*
X4456582Y7442657D01*
X4471720Y7445400D01*
X4486402Y7449972D01*
X4500422Y7456322D01*
X4513630Y7464298D01*
X4525721Y7473797D01*
X4536592Y7484668D01*
X4546092Y7496759D01*
X4554067Y7509967D01*
X4560417Y7523988D01*
X4564989Y7538669D01*
X4567732Y7553807D01*
X4568698Y7569200D01*
X4567732Y7584592D01*
X4564989Y7599730D01*
X4560417Y7614412D01*
X4554067Y7628432D01*
X4546092Y7641640D01*
X4536592Y7653731D01*
X4525721Y7664602D01*
X4513630Y7674102D01*
X4500422Y7682077D01*
X4486402Y7688427D01*
X4471720Y7692999D01*
X4456582Y7695742D01*
X4441190Y7696708D01*
X4425797Y7695742D01*
X4410659Y7692999D01*
X4395978Y7688427D01*
X4381957Y7682077D01*
X4368749Y7674102D01*
X4356658Y7664602D01*
X4345787Y7653731D01*
X4336288Y7641640D01*
X4328312Y7628432D01*
X4321962Y7614412D01*
X4317390Y7599730D01*
X4314647Y7584592D01*
X4313682Y7569200D01*
X4314647Y7553807D01*
X4317390Y7538669D01*
X4321962Y7523988D01*
X4328312Y7509967D01*
X4336288Y7496759D01*
X4345787Y7484668D01*
X4356658Y7473797D01*
X4368749Y7464298D01*
X4381957Y7456322D01*
X4395978Y7449972D01*
X4410659Y7445400D01*
X4425797Y7442657D01*
G37*
G36*
X5196840Y7455357D02*
G01*
X5198922Y7456322D01*
X5212130Y7464298D01*
X5224221Y7473797D01*
X5235092Y7484668D01*
X5244592Y7496759D01*
X5252567Y7509967D01*
X5253532Y7512050D01*
X5196840Y7512050D01*
G37*
G36*
X5082540Y7455357D02*
G01*
X5082540Y7512050D01*
X5025847Y7512050D01*
X5026812Y7509967D01*
X5034788Y7496759D01*
X5044287Y7484668D01*
X5055158Y7473797D01*
X5067249Y7464298D01*
X5080457Y7456322D01*
G37*
G36*
X5196840Y7626350D02*
G01*
X5253532Y7626350D01*
X5252567Y7628432D01*
X5244592Y7641640D01*
X5235092Y7653731D01*
X5224221Y7664602D01*
X5212130Y7674102D01*
X5198922Y7682077D01*
X5196840Y7683042D01*
G37*
G36*
X5025847Y7626350D02*
G01*
X5082540Y7626350D01*
X5082540Y7683042D01*
X5080457Y7682077D01*
X5067249Y7674102D01*
X5055158Y7664602D01*
X5044287Y7653731D01*
X5034788Y7641640D01*
X5026812Y7628432D01*
G37*
G36*
X3291128Y7862062D02*
G01*
X3439871Y7862062D01*
X3446170Y7862773D01*
X3451656Y7864703D01*
X3456533Y7867751D01*
X3460648Y7871866D01*
X3463696Y7876743D01*
X3465626Y7882229D01*
X3466337Y7888528D01*
X3466337Y8037271D01*
X3465626Y8043570D01*
X3463696Y8049056D01*
X3460648Y8053933D01*
X3456533Y8058048D01*
X3451656Y8061096D01*
X3446170Y8063026D01*
X3439871Y8063738D01*
X3291128Y8063738D01*
X3284829Y8063026D01*
X3279343Y8061096D01*
X3274466Y8058048D01*
X3270351Y8053933D01*
X3267303Y8049056D01*
X3265373Y8043570D01*
X3264662Y8037271D01*
X3264662Y7888528D01*
X3265373Y7882229D01*
X3267303Y7876743D01*
X3270351Y7871866D01*
X3274466Y7867751D01*
X3279343Y7864703D01*
X3284829Y7862773D01*
G37*
G36*
X2638247Y7862163D02*
G01*
X2651709Y7862570D01*
X2664968Y7864856D01*
X2677820Y7868818D01*
X2690063Y7874508D01*
X2701391Y7881721D01*
X2711704Y7890408D01*
X2720695Y7900416D01*
X2728366Y7911541D01*
X2734411Y7923530D01*
X2738831Y7936280D01*
X2741523Y7949438D01*
X2742438Y7962900D01*
X2741523Y7976362D01*
X2738831Y7989519D01*
X2734411Y8002270D01*
X2728366Y8014258D01*
X2720695Y8025384D01*
X2711704Y8035391D01*
X2701391Y8044078D01*
X2690063Y8051292D01*
X2677820Y8056981D01*
X2664968Y8060944D01*
X2651709Y8063230D01*
X2638247Y8063636D01*
X2624836Y8062315D01*
X2611729Y8059166D01*
X2599182Y8054340D01*
X2587345Y8047888D01*
X2576525Y8039912D01*
X2566822Y8030514D01*
X2558491Y8019948D01*
X2551633Y8008366D01*
X2546350Y7995970D01*
X2542794Y7982966D01*
X2541016Y7969656D01*
X2541016Y7956143D01*
X2542794Y7942834D01*
X2546350Y7929829D01*
X2551633Y7917434D01*
X2558491Y7905851D01*
X2566822Y7895285D01*
X2576525Y7885887D01*
X2587345Y7877911D01*
X2599182Y7871459D01*
X2611729Y7866634D01*
X2624836Y7863484D01*
G37*
G36*
X7518400Y7916722D02*
G01*
X7539075Y7917637D01*
X7559548Y7920532D01*
X7579715Y7925257D01*
X7599324Y7931810D01*
X7618222Y7940192D01*
X7636306Y7950250D01*
X7653375Y7961934D01*
X7669326Y7975142D01*
X7683957Y7989773D01*
X7697165Y8005724D01*
X7708849Y8022793D01*
X7718907Y8040878D01*
X7727289Y8059775D01*
X7733842Y8079384D01*
X7738567Y8099552D01*
X7741462Y8120024D01*
X7742377Y8140700D01*
X7741462Y8161375D01*
X7738567Y8181848D01*
X7733842Y8202015D01*
X7727289Y8221624D01*
X7718907Y8240522D01*
X7708849Y8258606D01*
X7697165Y8275675D01*
X7683957Y8291626D01*
X7669326Y8306257D01*
X7653375Y8319465D01*
X7636306Y8331149D01*
X7618222Y8341207D01*
X7599324Y8349589D01*
X7579715Y8356142D01*
X7559548Y8360867D01*
X7539075Y8363762D01*
X7518400Y8364677D01*
X7497724Y8363762D01*
X7477252Y8360867D01*
X7457084Y8356142D01*
X7437475Y8349589D01*
X7418578Y8341207D01*
X7400493Y8331149D01*
X7383424Y8319465D01*
X7367473Y8306257D01*
X7352842Y8291626D01*
X7339634Y8275675D01*
X7327950Y8258606D01*
X7317892Y8240522D01*
X7309510Y8221624D01*
X7302957Y8202015D01*
X7298232Y8181848D01*
X7295337Y8161375D01*
X7294422Y8140700D01*
X7295337Y8120024D01*
X7298232Y8099552D01*
X7302957Y8079384D01*
X7309510Y8059775D01*
X7317892Y8040878D01*
X7327950Y8022793D01*
X7339634Y8005724D01*
X7352842Y7989773D01*
X7367473Y7975142D01*
X7383424Y7961934D01*
X7400493Y7950250D01*
X7418578Y7940192D01*
X7437475Y7931810D01*
X7457084Y7925257D01*
X7477252Y7920532D01*
X7497724Y7917637D01*
G37*
G36*
X1028700Y7916722D02*
G01*
X1049375Y7917637D01*
X1069848Y7920532D01*
X1090015Y7925257D01*
X1109624Y7931810D01*
X1128522Y7940192D01*
X1146606Y7950250D01*
X1163675Y7961934D01*
X1179626Y7975142D01*
X1194257Y7989773D01*
X1207465Y8005724D01*
X1219149Y8022793D01*
X1229207Y8040878D01*
X1237589Y8059775D01*
X1244142Y8079384D01*
X1248867Y8099552D01*
X1251762Y8120024D01*
X1252677Y8140700D01*
X1251762Y8161375D01*
X1248867Y8181848D01*
X1244142Y8202015D01*
X1237589Y8221624D01*
X1229207Y8240522D01*
X1219149Y8258606D01*
X1207465Y8275675D01*
X1194257Y8291626D01*
X1179626Y8306257D01*
X1163675Y8319465D01*
X1146606Y8331149D01*
X1128522Y8341207D01*
X1109624Y8349589D01*
X1090015Y8356142D01*
X1069848Y8360867D01*
X1049375Y8363762D01*
X1028700Y8364677D01*
X1008024Y8363762D01*
X987552Y8360867D01*
X967384Y8356142D01*
X947775Y8349589D01*
X928878Y8341207D01*
X910793Y8331149D01*
X893724Y8319465D01*
X877773Y8306257D01*
X863142Y8291626D01*
X849934Y8275675D01*
X838250Y8258606D01*
X828192Y8240522D01*
X819810Y8221624D01*
X813257Y8202015D01*
X808532Y8181848D01*
X805637Y8161375D01*
X804722Y8140700D01*
X805637Y8120024D01*
X808532Y8099552D01*
X813257Y8079384D01*
X819810Y8059775D01*
X828192Y8040878D01*
X838250Y8022793D01*
X849934Y8005724D01*
X863142Y7989773D01*
X877773Y7975142D01*
X893724Y7961934D01*
X910793Y7950250D01*
X928878Y7940192D01*
X947775Y7931810D01*
X967384Y7925257D01*
X987552Y7920532D01*
X1008024Y7917637D01*
G37*

%LPD*%
D10*
X1714500Y7962900D02*
G01*
X1714500Y7543800D01*
X2387600Y7962900D02*
G01*
X2387600Y7556500D01*
X2400300Y7543800D01*
X3619500Y7962900D02*
G01*
X3619500Y7556500D01*
X6248400Y7480300D02*
G01*
X6248400Y7010400D01*
X6261100Y6997700D01*
X5139690Y7569200D02*
G01*
X5139690Y7103110D01*
X5245100Y6997700D01*
X2400300Y6527800D02*
G01*
X1714500Y6527800D01*
X2400300Y6527800D02*
G01*
X3606800Y6527800D01*
X3619500Y6540500D01*
X3619500Y6540500D02*
G01*
X5245100Y6540500D01*
X5245100Y6997700D01*
X3897401Y5740400D02*
G01*
X3897401Y4727371D01*
X4408373Y4216400D01*
X5490209Y7569200D02*
G01*
X6083300Y7569200D01*
X6248400Y7734300D01*
X2119426Y5740400D02*
G01*
X2614726Y6235700D01*
X5486400Y6235700D01*
X5490209Y6239510D01*
X5490209Y7569200D01*
D11*
G01*
X1714500Y7962900D03*
D12*
G01*
X2641600Y7962900D03*
D13*
G01*
X2387600Y7962900D03*
D12*
G01*
X3619500Y7962900D03*
D13*
G01*
X3365500Y7962900D03*
D14*
G01*
X5490209Y7569200D03*
D15*
G01*
X5139690Y7569200D03*
G01*
X4789170Y7569200D03*
G01*
X4441190Y7569200D03*
D16*
G01*
X6261100Y6997700D03*
G01*
X5245100Y6997700D03*
G01*
X3619500Y7556500D03*
G01*
X3619500Y6540500D03*
G01*
X2400300Y7543800D03*
G01*
X2400300Y6527800D03*
G01*
X1714500Y7543800D03*
G01*
X1714500Y6527800D03*
D17*
G01*
X5167401Y5740400D03*
D18*
G01*
X4913401Y5740400D03*
G01*
X4659401Y5740400D03*
G01*
X4405401Y5740400D03*
G01*
X4151401Y5740400D03*
G01*
X3897401Y5740400D03*
G01*
X3643401Y5740400D03*
G01*
X3389401Y5740400D03*
G01*
X3135401Y5740400D03*
G01*
X2881401Y5740400D03*
G01*
X2627426Y5740400D03*
G01*
X2373426Y5740400D03*
G01*
X1611426Y5740400D03*
G01*
X1357426Y5740400D03*
G01*
X1103426Y5740400D03*
G01*
X1103426Y4216400D03*
G01*
X1360398Y4216400D03*
G01*
X1614398Y4216400D03*
G01*
X1868398Y4216400D03*
G01*
X2122398Y4216400D03*
G01*
X2376398Y4216400D03*
G01*
X2630398Y4216400D03*
G01*
X2884398Y4216400D03*
G01*
X3138373Y4216400D03*
G01*
X2119426Y5740400D03*
G01*
X1865426Y5740400D03*
G01*
X3392373Y4216400D03*
G01*
X3646373Y4216400D03*
G01*
X3900373Y4216400D03*
G01*
X4154373Y4216400D03*
G01*
X4408373Y4216400D03*
G01*
X4662373Y4216400D03*
G01*
X4916373Y4216400D03*
G01*
X5170373Y4216400D03*
D19*
G01*
X6248400Y7734300D03*
D20*
G01*
X6248400Y7480300D03*
M02*
